<?xml version="1.0" encoding="UTF-8"?> <svg xmlns="http://www.w3.org/2000/svg" width="245" height="139"><g fill="#fff"><path d="m135.388 84.612.498-1.646h-3.882l.473-1.53h4.725l.504-1.667h-7.004l-2.46 8.11h7.004l.504-1.664h-4.74l.492-1.603h3.886ZM125.491 79.769h-4.253l-2.461 8.11h2.273l.843-2.788h1.588l1.177 2.788h2.409l-1.434-2.997c1.361-.258 2.201-.957 2.542-2.104l.06-.195c.516-1.71-.543-2.814-2.744-2.814Zm.444 2.63-.018.072c-.254.814-.84 1.09-1.763 1.09h-1.799l.691-2.268h1.974c.848 0 1.135.385.915 1.105ZM162.124 79.769h-4.254l-2.46 8.11h2.273l.843-2.788h1.587l1.178 2.788h2.409l-1.434-2.997c1.361-.258 2.2-.957 2.542-2.104l.06-.195c.516-1.71-.543-2.814-2.744-2.814Zm.444 2.63-.019.072c-.253.814-.839 1.09-1.762 1.09h-1.8l.692-2.268h1.974c.848 0 1.135.385.915 1.105ZM180.153 84.612l.498-1.646h-3.882l.474-1.53h4.724l.505-1.667h-7.004l-2.46 8.11h7.003l.504-1.664h-4.739l.492-1.603h3.885ZM143.38 79.769h-3.97l-2.457 8.11h2.273l.77-2.55h2.34c2.227 0 3.332-.75 3.83-2.387l.088-.289c.495-1.624-.311-2.884-2.874-2.884Zm.546 2.763-.054.179c-.232.768-.809 1.09-1.772 1.09h-1.639l.761-2.508h1.763c.96 0 1.213.343.941 1.239ZM173.696 81.434l.504-1.663h-7.828l-.507 1.663h2.832l-1.959 6.447h2.285l1.956-6.447h2.717ZM188.38 79.769h-4.254l-2.46 8.11h2.273l.842-2.788h1.558l1.208 2.788h2.409l-1.431-2.997c1.358-.258 2.197-.957 2.538-2.104l.061-.195c.516-1.71-.544-2.814-2.744-2.814Zm.443 2.63-.018.072c-.253.814-.839 1.09-1.763 1.09h-1.799l.692-2.268h1.974c.848 0 1.135.385.914 1.105ZM152.004 79.597c-2.771 0-4.241 1.014-4.945 3.337l-.217.72c-.864 2.841.755 4.223 3.269 4.223 2.771 0 4.241-1.011 4.948-3.334l.211-.72c.864-2.845-.751-4.226-3.266-4.226Zm1.171 3.707-.338 1.102c-.356 1.172-.999 1.758-2.309 1.758-1.437 0-1.953-.77-1.588-1.992l.338-1.105c.356-1.172 1.002-1.758 2.306-1.758 1.443 0 1.956.774 1.591 1.995ZM127.674 52.462l.413-1.352h-4.966l-1.892 6.25h4.962l.411-1.352h-3.182l.338-1.099h2.521l.401-1.333h-2.514l.344-1.114h3.164ZM114.917 52.462l.411-1.352h-5.612l-.407 1.352h2.004l-1.485 4.897h1.784l1.485-4.897h1.82ZM120.063 51.111l-.725 2.387h-2.052l.724-2.386h-1.79l-1.896 6.245h1.79l.767-2.526h2.056l-.77 2.526h1.79l1.896-6.245h-1.79ZM156.53 59.178c-5.322 0-9.884 5.578-9.884 11.305 0 4.215 2.926 7.148 6.104 7.148 5.322 0 9.887-5.581 9.887-11.308 0-4.214-2.931-7.145-6.107-7.145Zm-1.446 16.838c-.728.731-1.546 1.217-2.626 1.217-1.546 0-2.66-.953-2.66-3.871 0-3.374 1.757-9.905 4.401-12.568.722-.732 1.543-1.218 2.624-1.218 1.545 0 2.659.954 2.659 3.872 0 3.373-1.754 9.902-4.398 12.568ZM79.71 59.178c-5.322 0-9.884 5.578-9.884 11.305 0 4.215 2.925 7.148 6.104 7.148 5.322 0 9.886-5.581 9.886-11.308 0-4.214-2.93-7.145-6.106-7.145Zm-1.446 16.838c-.728.731-1.546 1.217-2.627 1.217-1.545 0-2.66-.953-2.66-3.871 0-3.374 1.758-9.905 4.402-12.568.722-.732 1.543-1.218 2.623-1.218 1.546 0 2.66.954 2.66 3.872 0 3.373-1.754 9.902-4.398 12.568ZM173.483 59.178c-5.322 0-9.883 5.578-9.883 11.305 0 4.215 2.925 7.148 6.104 7.148 5.322 0 9.886-5.581 9.886-11.308 0-4.214-2.931-7.145-6.107-7.145Zm-1.446 16.838c-.728.731-1.546 1.217-2.626 1.217-1.546 0-2.66-.953-2.66-3.871 0-3.374 1.757-9.905 4.402-12.568.721-.732 1.542-1.218 2.623-1.218 1.545 0 2.659.954 2.659 3.872 0 3.373-1.754 9.902-4.398 12.568ZM143.891 59.28c-1.189 0-2.007.968-2.007 2.013 0 1.087.93 1.958 1.968 1.958.933 0 1.657-.64 1.872-1.336.075.416.108.85.108 1.306 0 6.033-5.125 13.746-8.884 13.746-1.249 0-2.119-.783-.942-4.193l4.024-13.142h-3.664l-2.603 8.53c-1.901 6.1-4.724 8.805-6.381 8.805-1.156 0-1.854-.844-.96-3.762l4.087-13.573-.093-.115c-.67.054-2.219.115-4.073.115h-2.179l-.242.228.127.148h2.666l-3.378 11.132c-1.295 4.233.664 6.489 3.562 6.489 2.053 0 4.253-2.287 5.826-5.76-.715 3.534.99 5.76 3.529 5.76 5.301 0 10.077-8.736 10.077-14.566 0-2.818-1.045-3.783-2.44-3.783Z"></path><path d="M68.811 76.803h-3.423l7.676-25.315h3.143l.242-.227-.127-.15H66.088l-.241.232.127.145h3.16l-3.752 12.365h-10.14l3.752-12.365h2.877l.241-.227-.126-.15H51.752l-.241.232.126.145h3.424l-7.677 25.315h-3.142l-.242.228.127.149H54.36l.245-.228-.13-.149h-3.158L55.13 64.23h10.14l-3.813 12.574h-2.88l-.241.228.127.149h10.233l.245-.228-.13-.149ZM94.522 70.96l-.187.131c-2.134 4.938-3.32 5.718-4.09 5.718-.76 0-1.174-.543-.405-3.152l6.832-22.545-.094-.113c-.67.052-2.216.113-4.069.113h-2.183l-.241.227.127.15h2.668l-6.24 20.577c-1.017 3.768.38 5.563 2.796 5.563 1.503 0 3.03-1.014 5.25-6.425l-.164-.243ZM103.86 70.96l-.187.131c-2.134 4.938-3.32 5.718-4.09 5.718-.76 0-1.174-.543-.405-3.152l6.832-22.545-.094-.113c-.67.052-2.216.113-4.069.113h-2.183l-.241.227.127.15h2.668l-6.24 20.577c-1.017 3.768.38 5.563 2.796 5.563 1.503 0 3.031-1.014 5.249-6.425l-.163-.243ZM116.382 67.191c-2.185 7.212-4.996 9.775-6.729 9.775-1.171 0-1.775-.939-1.092-3.31l4.196-14.026-.091-.112c-.667.052-2.219.112-4.072.112h-2.18l-.241.228.13.149h2.665l-3.387 11.107c-1.292 4.33.707 6.516 3.577 6.516 1.969 0 4.088-1.906 5.766-5.571l-2.783 9.073c-1.513 5.067-3.306 6.48-5.232 6.48-2.043 0-3.55-.72-4.202-1.84.299.272.764.47 1.289.47 1.181-.04 2.059-.944 2.059-2.101 0-1.13-.9-2.09-2.047-2.09-1.126 0-2.104.93-2.104 2.296 0 2.071 2.044 3.653 4.954 3.653 3.698 0 7.45-1.843 9.382-8.232l6.107-20.138h-3.664l-2.301 7.561ZM201.001 51.114l-.094-.113c-.667.052-2.216.113-4.069.113h-2.183l-.238.227.127.15h2.668l-3.42 11.307c-.088-2.22-1.428-3.62-3.36-3.62-4.812 0-9.977 6.098-9.977 11.888 0 4.543 2.521 6.565 4.833 6.565 2.008 0 4.097-1.582 5.591-4.707-.586 3.24.797 4.707 2.886 4.707 1.506 0 3.031-1.014 5.252-6.425l-.166-.243-.187.13c-2.134 4.938-3.32 5.718-4.09 5.718-.761 0-1.175-.544-.405-3.152l6.832-22.545ZM193.079 65.2l-1.162 3.798c-2.013 6.641-4.809 8.235-6.357 8.235-1.386 0-1.923-.999-1.923-3.325 0-6.507 4.199-14.274 7.354-14.274 1.596 0 3.106 2.156 2.088 5.566Z"></path></g></svg> 