<?xml version="1.0" encoding="UTF-8"?> <svg xmlns="http://www.w3.org/2000/svg" width="245" height="139"><path fill="#fff" d="M116.086 51c-3.504-.051-6.614 2.738-6.614 6.774V75.95c.004.655-.492 1.235-1.215 1.235h-5.771c-12.488.015-11.372-15.718-.742-15.732 4.725-.007 6.376 0 6.376 0v-4.408h-6.603c-4.138.006-7.27 1.558-9.378 3.87-2.107 2.314-3.186 5.394-3.184 8.456.001 2.947 1.022 6.005 3.155 8.323 2.133 2.319 5.375 3.904 9.857 3.904h10.892c.63 0 1.164-.525 1.164-1.138V58.254c-.007-1.161.605-2.095 1.588-2.404.954-.299 2.002.09 2.634.975l.003.004.002.004c1.531 2.47 5.356 8.528 8.811 13.988 1.727 2.73 3.362 5.312 4.572 7.222l1.454 2.294.563.89c.255.353.576.487.843.404a.598.598 0 0 0 .36-.325c.09-.173.142-.413.142-.702V58.257c-.003-1.158.605-2.093 1.592-2.4.948-.3 1.999.09 2.625.975l.002.004.002.003c1.534 2.468 5.361 8.526 8.817 13.987a9345.14 9345.14 0 0 0 6.59 10.403c.25.353.591.493.875.405a.626.626 0 0 0 .37-.329c.092-.173.146-.411.146-.697V51.137h-4.517v17.209s-2.797-4.67-7.566-12.73c-4.665-7.897-13.47-4.633-13.473 2.161v10.566s-2.73-4.674-7.496-12.734c-1.896-3.207-4.478-4.573-6.876-4.608Zm-13.753.137c-25.957-.003-25.711 36.406.35 36.423h10.183c4.382.003 7.196-2.556 7.192-7.272v-9.222s5.712 9.322 7.953 12.971c3.813 6.205 13.04 4.985 13.017-2.765v-10.2s5.711 9.32 7.955 12.973c3.813 6.203 13.041 4.982 13.017-2.77V51.137h-4.51v29.47c.003 1.393-.79 2.172-1.545 2.407h-.001c-.921.29-1.924-.098-2.547-.977l-.002-.003-.002-.003c-.129-.203-12.352-19.474-15.408-24.397-.254-.355-.625-.5-.955-.398-.342.108-.559.465-.559 1.02v22.345c.003 1.398-.776 2.174-1.529 2.413h-.001c-.908.281-1.894-.105-2.514-.984l-.001-.002-.002-.002-.574-.904-1.46-2.3a12974.85 12974.85 0 0 1-4.577-7.228c-3.455-5.46-7.272-11.505-8.797-13.967-.254-.354-.628-.497-.959-.394-.346.108-.565.465-.562 1.016V80.46c0 1.426-1.187 2.587-2.636 2.587h-10.892c-4.956 0-8.585-1.771-10.966-4.37-2.38-2.597-3.515-6.015-3.519-9.306-.003-3.416 1.199-6.854 3.557-9.444 2.358-2.59 5.876-4.325 10.475-4.332h6.606v-4.458h-5.787Z"></path></svg> 