<?xml version="1.0" encoding="UTF-8"?> <svg xmlns="http://www.w3.org/2000/svg" width="245" height="139"><path fill="#fff" d="M178.686 78.924v.759c-1.046-.056-2.062-.152-3.077-.154-1.472 0-2.945.103-4.417.085-.531 0-1.066-.362-1.586-.338-1.474.081-2.94.28-4.41.434-.148.016-.297.038-.503.065v-1.31c-.735.41-1.381.903-2.111 1.153-2.69.903-5.851-.337-6.839-3.351-.44-1.337-.701-2.71-.607-4.099.14-2.062.703-4.003 2.12-5.575 1.086-1.2 2.5-1.79 4.106-1.863 1.043-.05 2.091 0 3.239 0-.044-.969-.064-2.052-.154-3.13a1.126 1.126 0 0 0-1.119-1.038c-.702-.018-.724-.327-.599-.945.453.027.908.027 1.361 0 1.476-.176 2.95-.375 4.421-.596.508-.078.675.032.594.53-.052.26-.084.522-.095.785v15.935c0 1.398.205 1.657 1.514 2.085.168.056.28.284.429.447 1.267-.326 1.53-1.367 1.548-2.467.043-2.756.07-5.514-.011-8.268-.04-1.305-.165-1.605-1.669-1.932v-.859c.592 0 1.151.044 1.703 0a37.154 37.154 0 0 0 3.706-.448c.67-.132.724.098.724.62 0 3.72.005 7.44.016 11.16 0 1.476.303 1.892 1.716 2.315Zm-14.071-6.819v-4.567c0-.833-.192-1.084-.996-1.346-1.468-.472-2.746.13-3.186 1.71a16.59 16.59 0 0 0-.543 3.693c-.067 1.538 0 3.093.61 4.55.634 1.503 1.992 2.083 3.523 1.546.411-.145.608-.349.599-.82-.023-1.587 0-3.176 0-4.766h-.007ZM75.73 79.16v.696h-7.617l-.035-.687c1.268-.362 1.764-1.148 1.758-2.472-.016-4.383.073-8.766.105-13.148a9.556 9.556 0 0 0-.127-1.646c-.123-.732-.698-1.096-1.694-1.126v-.738l6.244-.723v7.137c.963-.93 2.062-1.473 3.408-1.473 1.318 0 2.627-.063 3.764.819 1.045.81 1.432 1.925 1.47 3.154.074 2.372.06 4.749.087 7.122 0 .38.016.76.043 1.14.087 1.215.426 1.627 1.617 1.95v.627h-7.495v-.656a1.81 1.81 0 0 0 1.333-1.821c.021-2.62.105-5.241-.044-7.853-.117-2.06-1.899-2.96-3.801-2.089a.804.804 0 0 0-.406.58c0 3.253.018 6.502.054 9.746.02.765.386 1.128 1.338 1.464l-.002-.003ZM112.853 59.812v3.39h-.811c-.181-1.265-.974-2.04-2.221-2.181-1.942-.22-3.917-.286-5.476 1.207-.985.943-1.537 2.169-1.832 3.491-.691 3.116-.695 6.219.324 9.262.869 2.597 2.833 3.763 5.534 3.434v-4.399c0-.133-.013-.269 0-.403.031-.903-.223-1.3-1.021-1.626-.606-.251-.606-.251-.572-.88h7.772l.032.654-.313.1c-1.055.32-1.435.825-1.448 1.955-.013 1.568-.029 3.139-.013 4.698 0 .445-.087.637-.581.765-2.011.528-4.051.555-6.102.475-2.003-.077-3.865-.609-5.536-1.742-1.796-1.22-2.74-2.971-3.078-5.06-.164-1.001-.335-2.024-.297-3.03.094-2.506.514-4.935 2.162-6.982 1.33-1.654 3.09-2.568 5.103-3.058 2.938-.71 5.865-.459 8.382-.074l-.008.004Zm85.513 5.015.06 1.295c.543-.345.968-.737 1.477-.928 1.834-.695 3.698-.828 5.478.142 1.249.683 1.727 1.892 1.763 3.253.074 2.711.081 5.422.139 8.12.031 1.433.375 1.856 1.718 2.237v.646h-7.57c-.134-.443-.078-.687.45-.931.363-.17.701-.705.793-1.133.133-.75.184-1.511.152-2.272-.01-2.038-.07-4.077-.086-6.116-.017-2.109-1.63-2.504-3.319-2.184-.691.131-.957.437-.941 1.201.063 2.959.034 5.919.043 8.877 0 1.074.283 1.47 1.313 1.858v.698h-7.603l-.046-.683c1.449-.286 1.874-1.341 1.889-2.615.029-2.735.061-5.47-.015-8.205-.036-1.296-.165-1.69-1.7-1.96v-.722l6.005-.578Z"></path><path fill="#fff" d="M113.396 66.28v-.749l6.155-.722v9.838c.001.487.056.971.163 1.446.281 1.205 1.421 1.796 2.857 1.502.305-.044.598-.153.858-.318a1.05 1.05 0 0 0 .427-.694c.024-2.646.011-5.292 0-7.936 0-.46.035-.978-.157-1.366a1.97 1.97 0 0 0-.996-.95c-.557-.181-.695-.442-.579-.884l6.184-.62v2.514c0 3.027-.013 6.052 0 9.079 0 1.392.302 1.71 1.642 1.96.168.825.137.89-.645.867a16.95 16.95 0 0 0-4.9.487c-.362.096-.567 0-.543-.419.012-.325 0-.65 0-.865-.905.428-1.754.975-2.678 1.225-1.662.45-3.32.296-4.734-.795a3.02 3.02 0 0 1-1.176-2.285c-.096-2.566-.102-5.136-.156-7.702a5.37 5.37 0 0 0-.143-1.446c-.221-.712-.778-1.104-1.577-1.167h-.002Zm23.938 12.206c-.532.289-1.289.927-2.151 1.127-2.739.644-5.107-.225-5.226-3.578a6.606 6.606 0 0 1 .237-1.807c.335-1.327 1.249-2.118 2.567-2.35 1.159-.211 2.353-.281 3.512-.392.373-.036.751 0 1.247 0-.061-1.084.028-2.127-.215-3.09-.306-1.215-1.325-1.894-3.023-1.627-.956.156-1.59.758-2.1 1.533a.182.182 0 0 1-.105-.02c-.905-.82-.873-1.084 0-1.988 1.086-1.14 2.427-1.561 3.937-1.549.934 0 1.892 0 2.799.181 1.736.361 2.909 1.847 2.952 3.728.057 2.44.011 4.88.015 7.322 0 1.378.311 1.612 1.674 1.313.134-.029.399.067.433.165.067.193.103.49 0 .634-.724 1.007-1.7 1.64-2.96 1.695-.782.036-1.6.181-2.308-.37-.438-.344-.905-.644-1.294-.924l.009-.003Zm.181-5.852c-.471.045-.826.069-1.179.112-.892.11-1.584.52-1.842 1.419-.288.99-.363 1.998.315 2.878.523.687 1.848.78 2.507.214a.593.593 0 0 0 .192-.39c.012-1.38 0-2.758 0-4.235l.007.002Zm48.682-1.159c-.076-1.062-.038-2.054-.241-2.996-.316-1.471-1.613-2.044-3.028-1.655-.808.222-1.515.811-2.354 1.28-.812-.543-.783-.823 0-1.678 1.204-1.328 2.705-1.76 4.412-1.695.845.032 1.714.01 2.525.211 1.84.456 2.846 1.797 2.897 3.9.069 2.464.014 4.93.018 7.395 0 1.047.568 1.446 1.555 1.125.161-.053.482-.011.543.088a.721.721 0 0 1 .011.627c-.786 1.047-1.823 1.68-3.163 1.713-.952.024-1.94.125-2.612-.787-.194-.263-.362-.543-.543-.826-.429.33-.865.648-1.282.99-1.108.904-4.076.924-5.157-.192a4.53 4.53 0 0 1-1.048-1.919c-.399-1.482-.252-2.97.807-4.156a3.567 3.567 0 0 1 1.789-1.003c1.144-.255 2.335-.31 3.51-.423.393-.04.796 0 1.361 0v.001Zm-.063 1.16c-.525.06-.969.087-1.403.163-.824.143-1.448.613-1.602 1.43a5.461 5.461 0 0 0-.033 2.116c.259 1.211 1.81 1.695 2.806.953a.63.63 0 0 0 .223-.436c.014-1.375 0-2.742 0-4.234l.009.009ZM67.954 63.342h-.916c-.155-1.547-.825-2.132-2.4-2.127h-2.37v15.251c0 1.661.572 2.27 2.267 2.41 0 .122.021.25.021.38a2.847 2.847 0 0 1-.027.324h-9.105l-.026-.542c.614-.267 1.215-.408 1.646-.757.335-.271.563-.783.651-1.226.105-.652.145-1.313.12-1.973V61.228c-1.099 0-2.196-.094-3.27.027-1.01.112-1.406.734-1.65 2.094h-.768v-3.581h15.628l.2 3.574ZM96.288 71.454h-8.025c.092 1.956.052 3.922 1.594 5.377.52.473 1.165.786 1.858.903a6.589 6.589 0 0 0 3.548-.392.654.654 0 0 1 .574.18c.076.084 0 .42-.112.543a5.324 5.324 0 0 1-3.596 1.688c-1.491.08-2.99.2-4.473-.33-1.616-.58-2.628-1.683-3.282-3.2-.706-1.642-.684-3.399-.503-5.092.215-2.028.956-3.962 2.677-5.225a6.737 6.737 0 0 1 2.768-1.119c.967-.168 2.013-.077 2.994.082 2.126.347 3.42 2.154 3.773 4.126.138.78.136 1.575.205 2.46Zm-8.053-1.496h3.686c-.09-.945-.112-1.862-.279-2.75-.166-.89-.724-1.295-1.546-1.28-.822.014-1.357.404-1.535 1.31-.18.87-.215 1.762-.322 2.71l-.004.01Z"></path><path fill="#fff" d="M152.144 78.885v.696h-8.577l-.038-.676c.724-.18 1.369-.475 1.63-1.175.177-.496.268-1.02.267-1.547.026-2.667.053-5.337 0-8.002-.03-1.432-.329-1.867-1.703-2.055v-.723l5.987-.582v1.65c.351-.3.611-.457.787-.681 1.034-1.321 3.72-1.347 4.987-.523.324.21.402.456.254.785-.467 1.028-.932 2.056-1.425 3.072a.579.579 0 0 1-.44.28c-.132 0-.295-.191-.38-.334-.362-.618-.59-1.388-1.421-1.552a11.883 11.883 0 0 0-1.879-.2c-.101 0-.308.308-.31.474-.018 3.049-.041 6.098 0 9.147.018 1.299.641 1.787 2.261 1.946ZM49.58 80.001H36.001v-20.65h13.577v20.65ZM36.501 59.814v19.688h12.556V59.814H36.502ZM172.243 61.95c-.02-.986.292-1.708 1.475-1.79a10.13 10.13 0 0 1 2.354.124c.757.125 1.086.737 1.151 1.446.083.799-.262 1.446-.936 1.764a3.72 3.72 0 0 1-2.876.15c-.862-.291-1.164-.77-1.168-1.694Z"></path><path fill="#fff" d="M44.492 67.85c1.832-.764 2.983-3.443 2.276-5.288-.236-.612-.587-.757-1.027-.408a.618.618 0 0 0 .12.087c.58.233.736.491.543.914-.163.361-.632.454-1.086.224a1.128 1.128 0 0 1-.596-1.265c.114-.663.514-1.084 1.108-1.144.89-.1 1.63.372 1.884 1.305.447 1.61.305 4.263-1.618 5.754-.576.447-1.267.734-1.88 1.072-.044-.022.035.054.111.049.576-.035.672.33.648.775-.029.566-.197.696-.789.707-.807 0-.945.093-.834.889.164 1.185.434 2.35.64 3.536.132.63.218 1.27.256 1.912.021.859-.64 1.417-1.544 1.408-.906-.009-1.557-.52-1.478-1.39.107-1.17.386-2.325.569-3.491.121-.768.23-1.54.304-2.313.036-.392-.165-.568-.605-.564-.782 0-.905-.152-.923-.793 0-.445.141-.707.635-.667.118-.007.235-.029.348-.064-.047-.067-.063-.108-.083-.11-2.667-.39-3.715-2.689-3.815-4.79-.038-.8-.04-1.606.399-2.332.653-1.084 2.036-1.19 2.679-.204.481.739.05 1.758-.775 1.764a.906.906 0 0 1-.672-.33c-.18-.294-.03-.603.285-.79l.18-.106c-.289-.246-.542-.244-.723.101a3.235 3.235 0 0 0-.362 1.065c-.305 1.843.631 3.766 2.172 4.48.264.123.543.2.829.296l.116-.126c-.094-.082-.181-.18-.284-.246-.156-.116-.422-.202-.453-.347-.078-.347.205-.361.469-.361.08 0 .16-.073.362-.181a2.126 2.126 0 0 1-.429-.123 5.093 5.093 0 0 1-.422-.316c.129-.107.25-.219.388-.315.087-.061.193-.094.258-.253a.763.763 0 0 1-.233-.061c-.15-.098-.286-.213-.427-.324.13-.114.259-.233.394-.347.093-.072.196-.132.294-.197a2.385 2.385 0 0 1-.268-.18c-.14-.114-.268-.243-.402-.362.127-.13.237-.347.385-.374.319-.065.382-.224.363-.508-.017-.428.012-.82-.348-1.194-.201-.21-.248-.673-.196-.992.071-.43.51-.331.83-.335.506 0 1.015.049 1.518 0 .94-.08 1.045.683.648 1.236a1.665 1.665 0 0 0-.347 1.303c.027.181.18.317.306.461.125.145.25.264.378.394-.141.121-.28.246-.423.362a2.113 2.113 0 0 1-.181.124l.593.562-.675.52c.08.048.157.099.232.154.13.103.251.216.378.324-.125.108-.246.222-.378.32-.127.07-.259.13-.395.18.473.181 1.086.122.677.78l-.561.18.07.18.587-.227Zm-1.14-4.337c-.263-.206-.415-.418-.583-.43-.127-.011-.393.24-.384.347a.61.61 0 0 0 .348.459c.146.043.334-.181.617-.362l.002-.014Zm0 4.639c-.263-.206-.415-.416-.578-.428-.128 0-.39.236-.384.347a.59.59 0 0 0 .348.45c.147.038.331-.181.614-.362v-.007Zm-.616-3.434-.461.257c.157.088.328.149.506.18.147 0 .294-.122.438-.193l-.483-.244Zm-.521 1.12c.18.505.543.276.79.32.059.011.137-.099.205-.155-.068-.056-.13-.152-.202-.159-.227-.021-.467 0-.782 0l-.011-.005Zm.072.944-.054.132c.083.065.165.18.25.18.238-.004.475-.022.711-.055-.047-.087-.085-.244-.141-.25a7.263 7.263 0 0 0-.757-.012l-.009.005Z"></path><path fill="#fff" d="M43.358 63.514c-.284.18-.474.411-.614.384a.61.61 0 0 1-.347-.459c-.011-.114.255-.361.384-.347.164 0 .311.214.579.422h-.002ZM43.361 68.154c-.284.18-.47.4-.615.376a.592.592 0 0 1-.348-.45c0-.116.254-.361.384-.347.167 0 .312.212.581.423l-.002-.002ZM42.743 64.71l.483.245c-.146.069-.295.195-.438.193a1.635 1.635 0 0 1-.507-.18l.462-.257ZM42.23 65.832c.316 0 .556-.013.793 0 .071 0 .136.103.203.159-.069.054-.148.162-.204.155-.25-.038-.61.181-.791-.312v-.002Zm.073.943c.256-.01.512-.005.767.013.057 0 .095.16.142.25a5.9 5.9 0 0 1-.712.055c-.085 0-.18-.119-.25-.18l.053-.138ZM44.492 67.85l-.6.25-.07-.181.561-.18.11.111Z"></path></svg> 