<?xml version="1.0" encoding="UTF-8"?> <svg xmlns="http://www.w3.org/2000/svg" width="245" height="139"><path fill="#fff" d="M186.462 79.96c1.287 0 2.409-.112 3.861-.112h7.475c1.752 0 3.422.111 4.025.111.821 0 1.177-.388 1.177-1.303 0-.472-.082-1.542-.082-2.691 0-.722.082-1.637.082-1.998 0-.832-.411-1.331-1.177-1.331-.767 0-1.178.5-1.178 1.233 0 .308.11.943.11 1.498 0 1.775-.767 2.385-2.903 2.385h-3.778c-1.78 0-2.13-.388-2.13-2.191v-4.383c0-1.027.219-1.276 1.123-1.276h.931c1.341 0 1.807.308 1.807 1.165 0 .25-.055.832-.055.999 0 .748.411 1.165 1.123 1.165.794 0 1.177-.444 1.177-1.332 0-.888-.164-1.886-.164-2.913 0-1.026.164-2.025.164-2.885 0-.924-.383-1.415-1.177-1.415-.712 0-1.123.444-1.123 1.193 0 .167.055.75.055 1.027 0 .832-.466 1.137-1.807 1.137h-.931c-.913 0-1.123-.25-1.123-1.248v-3.551c0-1.692.329-1.998 1.944-1.998h3.751c1.972 0 2.711.555 2.711 2.053 0 .583-.109 1.233-.109 1.498 0 .777.438 1.249 1.177 1.249.739 0 1.217-.472 1.217-1.304 0-.36-.082-1.304-.082-1.998 0-1.026.082-1.97.082-2.385 0-.925-.383-1.304-1.217-1.304-.767 0-2.327.11-4.025.11h-7.07c-1.452 0-2.574-.11-3.861-.11-.931 0-1.369.444-1.369 1.248 0 .694.438 1.138 1.177 1.138.304 0 1.095-.167 1.521-.167.877 0 1.217.527 1.217 1.887v12.705c0 1.36-.328 1.886-1.217 1.886-.438 0-1.232-.166-1.521-.166-.739 0-1.177.444-1.177 1.137 0 .805.438 1.249 1.369 1.249m-9.145-16.7V74.84c0 .308-.028.416-.165.416s-.246-.084-.438-.416l-7.94-14.487c-.548-.971-.959-1.276-2.109-1.276-.52 0-1.369.11-2.19.11-1.123 0-1.999-.138-2.985-.138-.93 0-1.369.444-1.369 1.248 0 .694.439 1.138 1.178 1.138.304 0 1.068-.167 1.478-.167.986 0 1.342.555 1.342 1.997V75.75c0 1.443-.356 1.997-1.342 1.997-.41 0-1.177-.166-1.478-.166-.739 0-1.178.444-1.178 1.137 0 .805.439 1.249 1.369 1.249 1.315 0 2.52-.14 3.971-.14s2.656.14 3.97.14c.931 0 1.396-.444 1.396-1.249 0-.693-.438-1.137-1.217-1.137-.304 0-1.067.166-1.478.166-.986 0-1.342-.554-1.342-1.997V63.688c0-.333.028-.416.192-.416s.219.083.411.416l8.296 14.703c.739 1.331 1.041 1.608 2.382 1.608h.247c1.15 0 1.67-.527 1.67-1.608V63.287c0-1.415.383-1.97 1.396-1.97.329 0 1.013.111 1.287.111a.99.99 0 0 0 .788-.303 1.009 1.009 0 0 0 .28-.806c0-.805-.465-1.249-1.369-1.249-1.26 0-2.327.14-3.696.14-1.452 0-2.684-.14-4.025-.14-.913 0-1.369.444-1.369 1.249 0 .693.438 1.137 1.177 1.137.328 0 1.068-.166 1.506-.166.958 0 1.341.554 1.341 1.997m-28.573 16.672c1.342 0 2.574-.138 4.08-.138 1.506 0 2.765.138 4.107.138.913 0 1.396-.443 1.396-1.248a1.096 1.096 0 0 0-.723-1.081 1.072 1.072 0 0 0-.454-.056c-.383 0-1.15.166-1.588.166-.931 0-1.26-.582-1.26-2.108v-12.25c0-1.54.329-2.108 1.26-2.108.438 0 1.217.167 1.588.167a1.072 1.072 0 0 0 1.1-.681c.058-.145.084-.3.077-.457 0-.804-.493-1.248-1.396-1.248-1.342 0-2.601.139-4.107.139-1.506 0-2.738-.139-4.08-.139-.931 0-1.396.444-1.396 1.248 0 .694.438 1.138 1.177 1.138.356 0 1.15-.167 1.588-.167.931 0 1.26.583 1.26 2.109v12.261c0 1.541-.329 2.108-1.26 2.108-.438 0-1.232-.166-1.588-.166-.739 0-1.177.444-1.177 1.137 0 .805.465 1.249 1.396 1.249m-19.304 0c1.287 0 2.41-.111 3.861-.111h6.979c1.753 0 3.423.11 4.025.11.849 0 1.217-.388 1.217-1.303 0-.527-.055-1.748-.055-3.082 0-.805.055-1.85.055-2.275 0-.832-.438-1.304-1.217-1.304a1.116 1.116 0 0 0-.89.331 1.155 1.155 0 0 0-.327.902c0 .36.11 1.11.11 1.775 0 2.053-.767 2.747-3.012 2.747h-2.93c-1.944 0-2.355-.444-2.355-2.414V63.41c0-1.54.356-2.136 1.369-2.136.439 0 1.233.167 1.589.167.739 0 1.216-.444 1.216-1.138 0-.804-.465-1.248-1.396-1.248-1.396 0-2.656.139-4.244.139-1.479 0-2.683-.139-3.998-.139-.931 0-1.369.444-1.369 1.248 0 .694.438 1.138 1.178 1.138.304 0 1.068-.167 1.478-.167.913 0 1.26.527 1.26 1.887v12.705c0 1.36-.356 1.886-1.26 1.886-.41 0-1.177-.166-1.478-.166-.74 0-1.178.444-1.178 1.137 0 .805.438 1.249 1.369 1.249m-12.701-2.109c-2.821 0-3.286-.332-3.286-2.33V63.05c0-1.61.465-1.887 3.258-1.887 4.929 0 7.174 2.636 7.174 8.406 0 5.77-2.16 8.294-7.146 8.294Zm.191 2.136c6.626 0 9.94-3.523 9.94-10.569 0-6.99-3.231-10.403-9.885-10.403-1.314 0-4.08.139-4.846.139-1.522 0-2.766-.111-4.162-.111-.913 0-1.369.416-1.369 1.248 0 .694.438 1.138 1.177 1.138.304 0 1.095-.167 1.521-.167.876 0 1.217.527 1.217 1.887v12.705c0 1.36-.328 1.886-1.217 1.886-.438 0-1.232-.166-1.521-.166-.739 0-1.177.444-1.177 1.137 0 .833.465 1.249 1.369 1.249 1.396 0 2.628-.111 4.162-.111.766 0 3.532.138 4.791.138Zm-25.02-9.764c-.493 0-.608-.222-.383-.833l2.382-6.907c.11-.308.164-.389.329-.389.164 0 .191.084.304.389l2.382 6.907c.219.617.11.833-.383.833h-4.63Zm9.994 5.27L96.604 60.71c-.493-1.36-.822-1.72-2.13-1.72h-.356c-1.341 0-1.643.36-2.13 1.72l-5.311 14.795c-.63 1.776-1.123 2.053-2.218 2.109-.74.055-1.123.444-1.123 1.165 0 .804.438 1.193 1.314 1.193 1.04 0 1.972-.111 3.177-.111 1.341 0 2.573.11 3.805.11.877 0 1.342-.443 1.342-1.248 0-.693-.438-1.137-1.177-1.137-.274 0-.712.111-1.26.111-.912 0-1.369-.36-1.369-1.082.02-.39.103-.775.247-1.137l.848-2.414c.137-.416.356-.666.794-.666h6.252a.82.82 0 0 1 .546.175.84.84 0 0 1 .303.491l.85 2.414c.143.362.226.747.246 1.137 0 .721-.466 1.082-1.397 1.082-.52 0-.93-.111-1.217-.111a1.067 1.067 0 0 0-.855.292 1.095 1.095 0 0 0-.337.849c0 .804.493 1.248 1.341 1.248 1.26 0 2.492-.111 3.916-.111 1.177 0 2.163.11 3.231.11.876 0 1.314-.388 1.314-1.192 0-.721-.383-1.11-1.123-1.165-1.122-.056-1.615-.333-2.245-2.109M64.836 79.96c1.287 0 2.41-.11 3.86-.11h7.475c1.753 0 3.423.11 4.025.11.822 0 1.178-.388 1.178-1.303 0-.472-.082-1.542-.082-2.691 0-.722.082-1.637.082-1.998 0-.832-.41-1.331-1.178-1.331-.766 0-1.177.5-1.177 1.233 0 .308.11.943.11 1.498 0 1.775-.767 2.385-2.903 2.385h-3.778c-1.78 0-2.13-.388-2.13-2.191v-4.383c0-1.027.219-1.276 1.123-1.276h.93c1.342 0 1.808.308 1.808 1.165 0 .25-.055.832-.055.999 0 .748.41 1.165 1.123 1.165.794 0 1.177-.444 1.177-1.332 0-.888-.164-1.886-.164-2.913 0-1.026.164-2.025.164-2.885 0-.924-.383-1.415-1.177-1.415-.712 0-1.123.444-1.123 1.193 0 .167.055.75.055 1.027 0 .832-.466 1.137-1.807 1.137h-.938c-.912 0-1.122-.25-1.122-1.248v-3.551c0-1.692.329-1.998 1.944-1.998h3.751c1.972 0 2.71.555 2.71 2.053 0 .583-.109 1.233-.109 1.498 0 .777.438 1.249 1.178 1.249.739 0 1.217-.472 1.217-1.304 0-.36-.082-1.304-.082-1.998 0-1.026.082-1.97.082-2.385 0-.925-.384-1.304-1.217-1.304-.767 0-2.328.11-4.025.11h-7.065c-1.445 0-2.573-.11-3.86-.11-.931 0-1.37.444-1.37 1.248 0 .694.439 1.138 1.178 1.138.304 0 1.095-.167 1.521-.167.876 0 1.217.527 1.217 1.887v12.705c0 1.36-.328 1.886-1.217 1.886-.438 0-1.217-.166-1.521-.166-.74 0-1.177.444-1.177 1.137 0 .805.438 1.236 1.369 1.236ZM52.13 77.863c-2.82 0-3.286-.332-3.286-2.33V63.05c0-1.61.457-1.893 3.259-1.893 4.928 0 7.173 2.636 7.173 8.406 0 5.77-2.163 8.3-7.146 8.3ZM52.323 80c6.626 0 9.939-3.523 9.939-10.569 0-6.99-3.225-10.403-9.885-10.403-1.314 0-4.08.139-4.846.139-1.533 0-2.765-.111-4.162-.111-.904 0-1.369.416-1.369 1.248 0 .694.438 1.138 1.177 1.138.305 0 1.096-.167 1.522-.167.876 0 1.217.527 1.217 1.887v12.705c0 1.36-.33 1.886-1.217 1.886-.439 0-1.217-.166-1.522-.166-.739 0-1.177.444-1.177 1.14 0 .83.465 1.233 1.369 1.233 1.397 0 2.629-.11 4.162-.11.767 0 3.532.138 4.792.138"></path></svg> 