<?xml version="1.0" encoding="UTF-8"?> <svg xmlns="http://www.w3.org/2000/svg" width="245" height="139"><path fill="#fff" d="m182.228 63.154-.17.757-1.561.42a1.758 1.758 0 0 0-.809.627l-7.192 9.06-2.677 8.857c-.146.459.04.732.34.805l1.876.459-.25.757h-9.351l.25-.757 1.756-.419a1.115 1.115 0 0 0 .889-.926l2.678-8.97-2.346-8.761c-.105-.419-.234-.757-.671-.886l-1.1-.298.17-.757h7.975l-.169.757-1.351.379c-.486.129-.591.378-.461.805l1.917 7.432 5.662-7.52a.797.797 0 0 0 .17-.42.383.383 0 0 0-.109-.229.383.383 0 0 0-.231-.109l-1.521-.378.211-.757 6.075.072Z"></path><path fill="#fff" d="M163.632 68.115h-1.084l-.93-2.834a.806.806 0 0 0-.931-.669h-2.345l-5.485 18.295c-.145.46 0 .733.421.806l1.521.418-.251.757h-9.141l.251-.757 1.618-.378c.72-.17.865-.379 1.051-1.007l5.444-18.174h-2.726a1.28 1.28 0 0 0-1.011.628l-1.893 2.69h-1.051l1.706-5.283h.672a.805.805 0 0 0 .809.548h11.413a1.074 1.074 0 0 0 1.101-.548h.72l.121 5.508Zm-16.939-.274h-1.051l-1.011-2.713a.81.81 0 0 0-.809-.548h-4.369l-2.467 8.278h4.118c.42 0 .671-.21.97-.628l1.141-1.659h1.052l-1.942 6.595h-1.051l.04-2.335c0-.419-.251-.548-.671-.548h-4.045l-2.783 9.148h5.994a1.553 1.553 0 0 0 1.521-.669l2.386-2.963h1.141l-2.427 5.717h-.76c-.21-.419-.51-.588-1.27-.588h-13.752l.251-.757 1.618-.418a1.132 1.132 0 0 0 .809-.926l5.274-17.715a.539.539 0 0 0-.251-.717l-1.48-.459.21-.757h11.859a.998.998 0 0 0 .93-.547h.672l.153 5.21Z"></path><path fill="#fff" d="M182.01 57.421a156.817 156.817 0 0 1-32.543 3.422c-25.885 0-44.086-3.51-51.77-5.338L65.317 86.07l-2.638.339 9.52-28.844a35.138 35.138 0 0 1-8.97 2.27c-.736.081-.76-.337-.42-.523a8.457 8.457 0 0 0 2.636-2.02 8.415 8.415 0 0 0 1.65-2.875c4.668 1.135 8.187.25 12.45-1.305l-8.59 24.262 22.94-24.785a212.18 212.18 0 0 0 42.112 4.388c11.163 0 20.951-1.747 25.998-3.8 7.094 4.203 15.192 3.84 19.835 3.55.671-.04.76.589.17.717"></path><path fill="#fff" d="m132.108 63.155-.21.757-1.796.507a.9.9 0 0 0-.631.717l-5.274 17.578c-.145.523-.275.862.38 1.047l1.27.378-.25.757h-8.453l.25-.757 1.222-.378c.695-.21.906-.46 1.051-1.007l5.234-17.666c.105-.379 0-.629-.299-.717l-1.392-.46.211-.756h8.687Zm-12.594 5.379c0 3.301-2.637 6.176-6.925 6.007a10.622 10.622 0 0 1-2.467-.379c0 4.027 1.246 8.15 3.648 8.15 1.481 0 1.918-1.24 2.128-2.287.04-.17.17-.298.38-.081a3.453 3.453 0 0 1 1.052 2.545c0 2.48-1.618 3.59-3.948 3.59-6.01 0-6.285-8.615-5.314-13.905.064-.298.169-.339.38-.21.873.51 1.876.759 2.888.717 1.941 0 3.777-1.53 3.777-4.308 0-2.778-2.313-4.51-5.735-4.51l-5.662 18.924a1.436 1.436 0 0 0-.081.459.411.411 0 0 0 .094.308.42.42 0 0 0 .286.15l1.618.42-.251.756h-8.429l.25-.757 1.27-.378c.405-.13.567-.355.761-.967l5.606-18.915c-2.427.508-3.608 1.41-3.608 2.795a2.354 2.354 0 0 0 .421 1.513c.084.124.129.27.129.42 0 .313-.275.587-1.051.587a2.293 2.293 0 0 1-1.797-.686 2.27 2.27 0 0 1-.63-1.81c0-1.047.655-4.598 9.942-4.598 7.87 0 11.268 2.544 11.268 6.442M92.245 67.004 83.533 77.69h7.725l.987-10.686Zm4.498 17.16-.251.757h-7.984l.25-.757 1.392-.379a.81.81 0 0 0 .63-.805l.34-3.68h-8.962L79.23 82.82a.997.997 0 0 0-.3.548c0 .185.105.314.34.378l1.351.419-.25.757h-6.715l.3-.757 1.39-.338a2.751 2.751 0 0 0 1.352-.926l18.12-21.21 1.876-.338-1.747 21.636c-.04.46 0 .757.55.886l1.246.29Z"></path></svg> 