<?xml version="1.0" encoding="UTF-8"?> <svg xmlns="http://www.w3.org/2000/svg" width="245" height="139"><g fill="#fff" fill-rule="evenodd"><path d="M102.05 77.493v.215h-7.995v-3.106l.057-.01h-.06c.003-.002 0-8.156 0-8.156-.016-.475.159-2.6-2.263-2.577.002.007-2.486.042-2.43 3.031v.003l-.007 8.07c.071 2.484 1.558 2.536 1.563 2.536v.207H78.227c-.178.02-5.799.203-6.025-5.02v-2.824s-2.227.494-2.923 1.027c0 0-1.782 1.128-.607 3.063 0 0 .875 1.53 3.7.965l-1.378 2.796h-2.723s-6.356.13-7.1-4.53c0-.032-.572-3.655 3.767-5.122 0 0 1.485-.521 4.309-1.02.03 0 2.412-.339 2.634-1.627.056-.261.028-.533-.079-.777.04.101-1.082-2.836-7.938.134.029.032 1.41-4.294 1.41-4.294s6.458-1.893 10.964.866c-.03.03 2.354 1.294 2.321 5.26l.072 5.483c-.01.078-.005 2.809 2.69 2.962 0 .026.955.018 1.504.015v-11.97c0-.067.147-2.559-1.52-2.67v-.23l8.057-.312-.002 2.035c.438-.431 2.216-2.012 4.846-2.06 0 0 6.271-.22 6.261 5.91.002 0 .01 8.823.01 8.823-.049 2.862 1.575 2.904 1.575 2.904h-.002ZM40.023 52.357v-.263h8.744l6.275 18.282 4.641-14.668s.949-2.468-1.59-3.445v-.21h7.004l-8.85 25.85-3.684-1.416s-2.983-.88-4.57-5.344l-5.758-15.862s-.725-2.563-2.212-2.924Zm155.844 22.236c-.042 3.066 1.592 2.903 1.595 2.903v.217l-8.227-.005v-.003l-.002.003V66.68l-.003-.228c0 .104 0-2.817-2.566-2.848-.031.031-3.011-.285-3.011 5.272-.03.03-.03 6.5 5.008 5.669 0 .026-1.767 3.151-1.767 3.151s-4.084 1.405-7.472-2.205c0 0-2.576-2.235-2.576-6.615.03.03-.086-4.125 2.576-6.759-.027.086 4.11-4.577 9.808-.98v-5.83c0-.064.144-2.558-1.522-2.67v-.225l8.152-.315.007 22.496Zm-24.483-12.4c1.787-3.354 5.215-2.314 5.215-2.314v4.386c-5.437-.9-5.21 3.185-5.215 3.16h-.002l-.003 7.16c-.035 3.036 1.525 2.917 1.602 2.913v.21h-8.133v-.003h-4.706c-.17.02-5.794.204-6.015-5.02v-2.823s-2.235.494-2.93 1.027c0 0-1.777 1.128-.601 3.063 0 0 .87 1.53 3.697.965l-1.378 2.799h-2.729s-6.35.127-7.095-4.534c0-.032-.571-3.657 3.768-5.119 0 0 1.484-.523 4.306-1.021.032 0 2.412-.34 2.634-1.627a1.245 1.245 0 0 0-.078-.778c.034.104-1.082-2.836-7.94.134.039.032 1.416-4.294 1.416-4.294s6.459-1.893 10.965.866c-.034.034 2.348 1.297 2.319 5.255l.07 5.488c-.011.081-.009 2.809 2.69 2.96 0 .025 1.078.02 1.603.017V73.65l.003-10.557c0-.067.142-2.563-1.522-2.673v-.223l8.059-.315v2.312Z"></path><path d="M111.359 69.572c2.464 0 2.179-3.419 2.179-3.47-.052-2.935-2.174-2.848-2.174-2.848-2.337 0-2.244 2.93-2.271 2.9-.256 3.25 2.09 3.458 2.266 3.418Zm18.407-9.716v11.426s-.057 2.475 2.206 2.454c-.01-.04 2.393.361 2.482-3.047.004.004.004.01.007.01l.003-2.077v-5.53c0-.066.144-2.558-1.523-2.67v-.229l8.058-.312v14.707c-.004.063-.148 2.829 1.598 2.91v.207h-8.143l.002-2.087c-.331.338-2.147 2.058-4.889 2.11 0 0-6.384.223-6.371-5.914-.023-.046-.01-6.534-.004-8.75h-4.911c.186.153.427.476.429.476 2.757 3.522.078 6.452.053 6.479-1.768 2.47-7.477 3.163-7.477 3.163l-.355.04c-1.933.068-1.318 1.046-1.312 1.052.279.651 1.672.55 1.672.55h3.269c6.618-.023 7.324 4.303 7.351 4.303 1.087 6.068-5.034 7.877-11.147 7.718-6.065.039-8.313-2.595-8.289-2.575-1.54-1.78-.726-4.264 2.001-5.017 2.016-.555 4.399 0 4.399 0-1.811.252-1.49 2.092-1.487 2.105.607 2.174 3.706 2.196 3.893 2.198 3.957-.203 4.07-2.126 4.07-3.066 0-1.24-1.033-1.985-1.033-1.985-1.434-1.052-4.148-.72-6.037-.801-2.648-.15-3.335-2.633-3.461-3.393-.124-.767.019-1.076.461-1.359.799-.469 2.615-.675 2.409-.67l.039-.009c-.034-.007-.055-.007-.057-.007-2.278-.723-3.63-2.636-3.655-2.636-2.895-4.13.481-7.386.481-7.386 1.937-1.864 4.398-2.282 6.596-2.388h18.672Zm68.74-4.52c0 1.53 1.259 2.776 2.808 2.776 1.546 0 2.802-1.247 2.802-2.776 0-1.53-1.255-2.778-2.802-2.778-1.549 0-2.808 1.247-2.808 2.778Zm-.449 0c0-1.775 1.457-3.223 3.257-3.223 1.794 0 3.256 1.448 3.256 3.223 0 1.776-1.462 3.223-3.256 3.223a3.248 3.248 0 0 1-2.297-.94 3.233 3.233 0 0 1-.96-2.283Z"></path><path d="M200.607 55.54v1.715h-.537v-3.796h1.372c.646 0 1.307.2 1.307.951a.905.905 0 0 1-.717.916v.011c.459.108.52.353.58.777.058.378.102.783.241 1.14h-.571c-.047-.224-.11-.471-.137-.7-.041-.34-.041-.649-.217-.842-.153-.171-.367-.156-.579-.171h-.742Zm-.013-.45h.878c.59-.028.723-.292.723-.59 0-.3-.133-.565-.723-.59h-.879l.001 1.18Z"></path></g></svg> 