<?xml version="1.0" encoding="utf-8"?><svg xmlns="http://www.w3.org/2000/svg" xmlns:xlink="http://www.w3.org/1999/xlink"><symbol viewBox="0 0 26.9 32" id="apple" xmlns="http://www.w3.org/2000/svg"><path fill="currentColor" d="M26.31 24.91A17.13 17.13 0 0 1 24.6 28a15.71 15.71 0 0 1-2.22 2.68A4.4 4.4 0 0 1 19.54 32a7.3 7.3 0 0 1-2.62-.63 7.62 7.62 0 0 0-2.83-.64 7.74 7.74 0 0 0-2.9.64 8.76 8.76 0 0 1-2.5.67 4.1 4.1 0 0 1-2.91-1.29A16.93 16.93 0 0 1 3.47 28 19.3 19.3 0 0 1 1 23.08a17.73 17.73 0 0 1-1-5.81 10.55 10.55 0 0 1 1.38-5.54 8 8 0 0 1 6.85-4.05 9.27 9.27 0 0 1 3 .71 9.8 9.8 0 0 0 2.41.71 14.94 14.94 0 0 0 2.68-.83A9.07 9.07 0 0 1 20 7.62a7.76 7.76 0 0 1 6.06 3.2 6.73 6.73 0 0 0-3.58 6.12A6.83 6.83 0 0 0 24.69 22a7.79 7.79 0 0 0 2.21 1.46c-.21.47-.39 1-.59 1.42zM20.13.63a6.85 6.85 0 0 1-1.75 4.48 6 6 0 0 1-5 2.45 5.86 5.86 0 0 1 0-.61 7 7 0 0 1 1.86-4.52 7.26 7.26 0 0 1 2.25-1.7A6.62 6.62 0 0 1 20.07 0a2.32 2.32 0 0 1 .06.63z"/></symbol><symbol fill="none" viewBox="0 0 14 25" id="arrow-down" xmlns="http://www.w3.org/2000/svg"><path stroke="currentColor" stroke-linecap="round" stroke-linejoin="round" d="M7 1v23.2m6-9.2s-2.76 2.5-4 4.5C7.98 21.13 7 24 7 24s-.98-2.87-2-4.5c-1.24-2-4-4.5-4-4.5"/></symbol><symbol viewBox="0 0 25 14" id="arrow-left" xmlns="http://www.w3.org/2000/svg"><path fill="none" stroke="currentColor" stroke-linecap="round" stroke-linejoin="round" d="M24.2 7H1m9.2-6S7.7 3.76 5.7 5C4.07 6.02 1.2 7 1.2 7s2.87.98 4.5 2c2 1.24 4.5 4 4.5 4"/></symbol><symbol viewBox="0 0 25 14" id="arrow-right" xmlns="http://www.w3.org/2000/svg"><path fill="none" stroke="currentColor" stroke-linecap="round" stroke-linejoin="round" d="M1 7h23.2M15 1s2.5 2.76 4.5 4C21.13 6.02 24 7 24 7s-2.87.98-4.5 2c-2 1.24-4.5 4-4.5 4"/></symbol><symbol viewBox="0 0 14 25" id="arrow-up" xmlns="http://www.w3.org/2000/svg"><path fill="none" stroke="currentColor" stroke-linecap="round" stroke-linejoin="round" d="M7 24V.8M1 10s2.76-2.5 4-4.5C6.02 3.87 7 1 7 1s.98 2.87 2 4.5c1.24 2 4 4.5 4 4.5"/></symbol><symbol viewBox="0 0 39 39" id="arrow-up-right" xmlns="http://www.w3.org/2000/svg"><path fill="none" stroke="currentColor" stroke-linecap="round" stroke-linejoin="round" stroke-width="1.5" d="M5.3 32.7 32.7 5.3M19.45 7.96s4.65.22 7.5-.45c2.35-.54 5.75-2.2 5.75-2.2s-1.66 3.4-2.2 5.74c-.67 2.86-.45 7.51-.45 7.51"/></symbol><symbol viewBox="0 0 119 122" id="asterisk" xmlns="http://www.w3.org/2000/svg"><path fill="currentColor" d="m106.87 20.88 11.8 21.2L73.1 61 119 79.6l-12.46 21.85-39.66-28.7L72.12 122H47.53l4.92-49.26-39.66 29.04L0 79.59l45.57-18.92L0 42.41l12.13-21.86 40.65 29.03L47.53 0h24.92l-5.57 49.58 40-28.7Z"/></symbol><symbol viewBox="0 0 32 19.28" id="chevron-down-o" xmlns="http://www.w3.org/2000/svg"><path fill="none" stroke="currentColor" stroke-miterlimit="10" stroke-width="4" d="m1.5 1.4 14.63 15 14.37-15"/></symbol><symbol viewBox="0 0 19.28 32" id="chevron-left-o" xmlns="http://www.w3.org/2000/svg"><path fill="none" stroke="currentColor" stroke-miterlimit="10" stroke-width="4" d="m17.88 1.5-15 14.37 15 14.63"/></symbol><symbol viewBox="0 0 19.28 32" id="chevron-right-o" xmlns="http://www.w3.org/2000/svg"><path fill="none" stroke="currentColor" stroke-miterlimit="10" stroke-width="4" d="m1.4 30.5 15-14.63L1.4 1.5"/></symbol><symbol viewBox="0 0 32 19.28" id="chevron-up-o" xmlns="http://www.w3.org/2000/svg"><path fill="none" stroke="currentColor" stroke-miterlimit="10" stroke-width="4" d="m30.5 17.88-14.37-15-14.63 15"/></symbol><symbol viewBox="0 0 26 18" id="discord" xmlns="http://www.w3.org/2000/svg"><path fill="currentColor" d="M22.29 2.84A10.58 10.58 0 0 0 16.45.76l-.31.3a13.88 13.88 0 0 1 5.25 2.53 19.67 19.67 0 0 0-8.37-2 19.67 19.67 0 0 0-8.37 2 13.88 13.88 0 0 1 5.23-2.53l-.32-.3a10.58 10.58 0 0 0-5.84 2.08A25.1 25.1 0 0 0 .63 14.4a9 9 0 0 0 6.6 2.84s.77-.87 1.35-1.64a6.8 6.8 0 0 1-3.76-2.32A14.22 14.22 0 0 0 13 15.62a14.22 14.22 0 0 0 8.18-2.34 6.8 6.8 0 0 1-3.76 2.32c.57.77 1.35 1.65 1.35 1.65a9 9 0 0 0 6.6-2.84 25.09 25.09 0 0 0-3.08-11.57ZM9.2 12.41A2.2 2.2 0 0 1 9.2 8a2.2 2.2 0 0 1 0 4.4Zm7.62 0a2.2 2.2 0 0 1 0-4.4 2.2 2.2 0 0 1 0 4.41Z"/></symbol><symbol viewBox="0 0 32 32" id="dribbble" xmlns="http://www.w3.org/2000/svg"><path fill="currentColor" d="M16 0a16 16 0 1 0 16 16A16 16 0 0 0 16 0zm10.43 7.55a13.38 13.38 0 0 1 3 8 22.6 22.6 0 0 0-9-.09c-.48-1.12-1-2.2-1.48-3.21a26.68 26.68 0 0 0 7.48-4.7zm-1.81-1.84A23.78 23.78 0 0 1 17.75 10a62.59 62.59 0 0 0-4.55-7.14 13.57 13.57 0 0 1 2.8-.29 13.35 13.35 0 0 1 8.62 3.14zm-14-2a60.23 60.23 0 0 1 4.68 7.22 42.76 42.76 0 0 1-12.36 1.94 13.5 13.5 0 0 1 7.67-9.17zm-8 11.75h.08a46.59 46.59 0 0 0 8.14-.75 39.89 39.89 0 0 0 5.7-1.47c.47.92.93 1.9 1.38 2.93a24 24 0 0 0-6.28 3.11 28.44 28.44 0 0 0-5.84 5.4A13.35 13.35 0 0 1 2.57 16l.01-.55zm5 11a25.86 25.86 0 0 1 5.52-5.13 21.88 21.88 0 0 1 5.72-2.82 49.37 49.37 0 0 1 2.7 9.7A13.21 13.21 0 0 1 16 29.43a13.35 13.35 0 0 1-8.39-2.96zm16.31.37a53.48 53.48 0 0 0-2.53-8.92 20.31 20.31 0 0 1 7.86.26 13.46 13.46 0 0 1-5.34 8.67z"/></symbol><symbol viewBox="0 0 24 24" id="facebook" xmlns="http://www.w3.org/2000/svg"><path fill="currentColor" d="M23 12a11 11 0 1 1-22 0 11 11 0 0 1 22 0Zm-7.17-6.3c-.28-.03-.86-.12-1.98-.12-2.32 0-3.68 1.23-3.68 4.03v1.47H7.42v2.75h2.75v7.15a9.22 9.22 0 0 0 2.75.14v-7.29h2.5l.39-2.75h-2.9V9.91c0-1.06.35-1.58 1.34-1.58h1.58V5.7Z"/></symbol><symbol viewBox="0 0 32 32" id="github" xmlns="http://www.w3.org/2000/svg"><path fill="currentColor" d="M16.05 0A16.22 16.22 0 0 0 0 16.43 16.38 16.38 0 0 0 11 32c.86.11 1.07-.33 1.07-.76v-2.87c-4.49 1-5.45-2.19-5.45-2.19a4.63 4.63 0 0 0-1.82-2.41c-1.5-1 .1-1 .1-1a3.37 3.37 0 0 1 2.46 1.65c1.4 2.51 3.75 1.75 4.71 1.31a3.05 3.05 0 0 1 1.07-2.19c-3.53-.44-7.27-1.86-7.27-8.11a6.64 6.64 0 0 1 1.6-4.38 5.84 5.84 0 0 1 .13-4.37S9 6.24 12 8.32a16.92 16.92 0 0 1 4.06-.54 17 17 0 0 1 4.07.54c3.1-2.08 4.39-1.64 4.39-1.64a5.82 5.82 0 0 1 .1 4.38 6.13 6.13 0 0 1 1.61 4.38c0 6.36-3.75 7.67-7.28 8.11A4.25 4.25 0 0 1 20 26.62v4.49a.77.77 0 0 0 1.07.76A16.29 16.29 0 0 0 32 16.32 16 16 0 0 0 16.05 0z"/></symbol><symbol viewBox="0 0 29 32" id="google-play" xmlns="http://www.w3.org/2000/svg"><path fill="currentColor" d="m.75 31.55 13.88-14 4.9 4.94L3 31.74a2 2 0 0 1-2 0zm12.48-15.41L0 29.49V2.79zm8.27-5.52 6.5 3.63a2 2 0 0 1 0 3.5l-6.64 3.73L16 16.14zM.61.58A1.78 1.78 0 0 1 1 .27a2 2 0 0 1 2 0l16.7 9.34-5.07 5.12z"/></symbol><symbol viewBox="0 0 32 32" id="instagram" xmlns="http://www.w3.org/2000/svg"><path fill="currentColor" d="M3 10v12a7.07 7.07 0 0 0 7 7h12a7.07 7.07 0 0 0 7-7V10a7.07 7.07 0 0 0-7-7H10a7.07 7.07 0 0 0-7 7zm-3 0A9.81 9.81 0 0 1 10 0h12a9.81 9.81 0 0 1 10 10v12a9.81 9.81 0 0 1-10 10H10A9.81 9.81 0 0 1 0 22zm16 10.71A4.71 4.71 0 1 0 11.29 16 4.66 4.66 0 0 0 16 20.71zm0 2.82A7.53 7.53 0 1 1 23.53 16 7.55 7.55 0 0 1 16 23.53zm9.41-15.06a1.88 1.88 0 0 1-3.76 0 1.88 1.88 0 1 1 3.76 0z"/></symbol><symbol viewBox="0 0 24 24" id="link" xmlns="http://www.w3.org/2000/svg"><path fill="currentColor" fill-rule="evenodd" d="M16.76 2.85a2.9 2.9 0 0 0-3.03 1 .75.75 0 1 1-1.17-.94 4.43 4.43 0 0 1 7.71 3.9l-2.37 8.85a4.42 4.42 0 1 1-8.53-2.28l.95-3.54a.75.75 0 0 1 1.44.39l-.94 3.54a2.92 2.92 0 0 0 5.63 1.5l2.37-8.85a2.92 2.92 0 0 0-2.06-3.57Zm-4.97 4.36a2.92 2.92 0 0 0-3.57 2.07l-2.37 8.85a2.92 2.92 0 0 0 5.1 2.58.75.75 0 0 1 1.16.94 4.43 4.43 0 0 1-7.7-3.9l2.36-8.86a4.42 4.42 0 0 1 8.54 2.28l-.95 3.55a.75.75 0 0 1-1.45-.4l.95-3.53A2.92 2.92 0 0 0 11.8 7.2Z" clip-rule="evenodd"/></symbol><symbol viewBox="0 0 32 30.48" id="linkedin" xmlns="http://www.w3.org/2000/svg"><path fill="currentColor" d="M32 18.72v11.76h-7V19.59c0-2.83-1-4.59-3.45-4.59a3.1 3.1 0 0 0-3.26 2.39 3.24 3.24 0 0 0-.22 1.53v11.56h-7V10h7v2.83a7 7 0 0 1 6.09-3.48c4.57.01 7.84 3.06 7.84 9.37zM3.92 0C1.52 0 0 1.52 0 3.48A3.5 3.5 0 0 0 3.7 7c2.4 0 3.92-1.56 3.92-3.52A3.37 3.37 0 0 0 3.92 0zM.44 30.48h7V10h-7z"/></symbol><symbol viewBox="0 0 32 32" id="medium" xmlns="http://www.w3.org/2000/svg"><path fill="currentColor" d="M0 0v32h32V0zm26.73 7.53L25 9.22a.7.7 0 0 0-.19.57v12.05a.69.69 0 0 0 .19.56l1.69 1.69v.38h-8.62v-.38l1.69-1.69c.19-.19.19-.19.19-.56v-10l-4.89 12.25h-.57L8.85 11.86v8.28c0 .38 0 .75.37.94l2.26 2.83v.37h-6.4v-.37l2.26-2.83a1.42 1.42 0 0 0 .38-.94v-9.41a1.1 1.1 0 0 0-.19-.73L5.27 7.53v-.38h6.21l4.9 10.54 4.33-10.54h6z"/></symbol><symbol viewBox="0 0 24 24" id="search" xmlns="http://www.w3.org/2000/svg"><path fill="#12171D" fill-rule="evenodd" d="M24 10.4a10.4 10.4 0 1 0-20.81 0 10.4 10.4 0 0 0 20.81 0ZM13.6 1.7a8.7 8.7 0 1 1 0 17.42 8.7 8.7 0 0 1 0-17.42ZM5.7 18.3a.85.85 0 0 0-1.2 0L.25 22.55a.85.85 0 0 0 1.2 1.2L5.7 19.5a.85.85 0 0 0 0-1.2Z" clip-rule="evenodd"/></symbol><symbol viewBox="0 0 32 28" id="telegram" xmlns="http://www.w3.org/2000/svg"><path fill="currentColor" d="M.52 13.31 7.9 16.1l2.92 9.2a.87.87 0 0 0 1.4.41l4.17-3.34a1.09 1.09 0 0 1 1.53 0l7.38 5.43a.85.85 0 0 0 1.39-.55L32 1.05a.83.83 0 0 0-1.11-1L.52 11.64a.93.93 0 0 0 0 1.67zm9.75 1.26 14.47-8.92c.28-.14.56.28.28.42l-11.83 11a3.34 3.34 0 0 0-.84 1.54l-.41 3.06c0 .42-.56.42-.7 0l-1.53-5.43a1.33 1.33 0 0 1 .56-1.67z"/></symbol><symbol viewBox="0 0 17 20" id="tiktok" xmlns="http://www.w3.org/2000/svg"><path fill="currentColor" d="M14.88 4.28 14.5 4a5.46 5.46 0 0 1-1-.86 4.81 4.81 0 0 1-1.11-2.3 3 3 0 0 1 0-.84H9v13.87a3 3 0 0 1-.44 1.34 2.89 2.89 0 0 1-1 1 2.77 2.77 0 0 1-1.39.38 2.92 2.92 0 0 1 0-5.83 2.77 2.77 0 0 1 .87.14V7.41a6.14 6.14 0 0 0-2.56.2 6.22 6.22 0 0 0-2.29 1.24 6.72 6.72 0 0 0-1.44 1.82A6.38 6.38 0 0 0 0 13.55a6.93 6.93 0 0 0 .36 2.28 6.76 6.76 0 0 0 .91 1.7 6.9 6.9 0 0 0 1.46 1.4A6.21 6.21 0 0 0 6.19 20a6 6 0 0 0 2.55-.58 6.43 6.43 0 0 0 2.07-1.59 6.63 6.63 0 0 0 1.13-1.91 7.29 7.29 0 0 0 .41-2.19v-7l.59.39a7.71 7.71 0 0 0 2 .85 11.35 11.35 0 0 0 2.06.24V4.8a4.3 4.3 0 0 1-2.12-.52Z"/></symbol><symbol viewBox="0 0 32 32" id="times-o" xmlns="http://www.w3.org/2000/svg"><path fill="none" stroke="currentColor" stroke-miterlimit="10" stroke-width="4" d="m1.5 1.5 29 29M1.5 30.5l29-29"/></symbol><symbol viewBox="0 0 32 26" id="twitter" xmlns="http://www.w3.org/2000/svg"><path fill="currentColor" d="M27.8 4.2a7.52 7.52 0 0 0 3-3.6 10.77 10.77 0 0 1-4.2 1.6A7.18 7.18 0 0 0 21.8 0a6.49 6.49 0 0 0-6.4 6.6 4.4 4.4 0 0 0 .2 1.6 19.64 19.64 0 0 1-13.4-7 6.64 6.64 0 0 0-1 3.2 6.65 6.65 0 0 0 3 5.6 7.41 7.41 0 0 1-3-.8 6.85 6.85 0 0 0 5.4 6.6H4.8a2.54 2.54 0 0 1-1.2-.2 6.62 6.62 0 0 0 6 4.6 13 13 0 0 1-8 2.8H0a19 19 0 0 0 10 3c12 0 18.6-10 18.6-18.6v-.8A27.25 27.25 0 0 0 32 3.2a41.87 41.87 0 0 1-4.2 1z"/></symbol><symbol viewBox="0 0 32 22.5" id="youtube" xmlns="http://www.w3.org/2000/svg"><path fill="currentColor" d="M31.33 3.55A4 4 0 0 0 28.5.72C26 .05 16 .05 16 .05S6 .05 3.5.72A4 4 0 0 0 .67 3.55a41.51 41.51 0 0 0-.67 7.7A41.51 41.51 0 0 0 .67 19a4 4 0 0 0 2.83 2.78c2.49.67 12.5.67 12.5.67s10 0 12.5-.67A4 4 0 0 0 31.33 19a41.51 41.51 0 0 0 .67-7.7 41.51 41.51 0 0 0-.67-7.75zM12.8 16.05v-9.6l8.31 4.8z"/></symbol></svg>