<?xml version="1.0" standalone="no"?>
<!DOCTYPE svg PUBLIC "-//W3C//DTD SVG 20010904//EN"
 "http://www.w3.org/TR/2001/REC-SVG-20010904/DTD/svg10.dtd">
<svg version="1.0" xmlns="http://www.w3.org/2000/svg"
 width="700.000000pt" height="700.000000pt" viewBox="0 0 700.000000 700.000000"
 preserveAspectRatio="xMidYMid meet">
<metadata>
Created by potrace 1.14, written by Peter Selinger 2001-2017
</metadata>
<g transform="translate(0.000000,700.000000) scale(0.100000,-0.100000)"
fill="#000000" stroke="none">
<path d="M1509 6996 c-2 -2 -26 -6 -54 -9 -123 -14 -337 -68 -404 -103 -14 -8
-30 -14 -34 -14 -16 0 -184 -88 -253 -132 -380 -245 -649 -640 -735 -1083 -35
-180 -32 -520 5 -643 3 -9 8 -33 11 -52 11 -66 76 -245 125 -345 334 -679
1078 -1045 1820 -894 298 61 573 203 793 409 301 283 467 613 522 1035 7 51 8
300 1 345 -2 14 -7 50 -11 80 -21 160 -81 345 -166 510 -248 480 -701 803
-1244 885 -44 7 -370 16 -376 11z m356 -641 c149 -34 240 -72 363 -151 149
-97 280 -246 357 -409 79 -167 104 -278 103 -461 -2 -288 -115 -546 -324 -744
-367 -346 -936 -375 -1333 -68 -497 383 -545 1106 -105 1550 154 155 382 270
584 294 30 3 56 7 58 9 10 9 240 -6 297 -20z"/>
<path d="M5199 6996 c-2 -2 -29 -6 -59 -9 -211 -22 -472 -114 -675 -239 -271
-168 -516 -450 -639 -738 -15 -36 -31 -74 -36 -85 -13 -30 -57 -176 -63 -210
-36 -196 -37 -207 -38 -375 -3 -444 163 -843 486 -1165 209 -210 453 -354 725
-429 179 -49 450 -72 620 -52 495 60 926 323 1205 736 138 205 234 469 265
730 8 74 6 355 -3 397 -3 11 -8 43 -12 70 -4 26 -18 90 -32 142 -151 572 -604
1024 -1178 1175 -49 13 -108 27 -130 30 -22 4 -56 9 -75 12 -40 7 -356 15
-361 10z m299 -630 c157 -25 332 -98 457 -191 611 -454 544 -1380 -126 -1743
-159 -87 -314 -123 -504 -118 -154 4 -178 8 -287 42 -328 103 -578 352 -681
679 -36 114 -39 135 -42 280 -4 153 6 227 46 350 26 77 109 250 128 265 3 3
19 23 36 45 112 153 322 298 512 355 140 42 327 57 461 36z"/>
<path d="M1597 3314 c-1 -1 -41 -4 -88 -8 -48 -3 -93 -8 -100 -10 -8 -3 -32
-8 -53 -11 -141 -20 -340 -91 -491 -173 -73 -40 -224 -140 -251 -166 -6 -6
-40 -37 -77 -69 -238 -210 -440 -564 -501 -882 -9 -44 -19 -93 -22 -110 -3
-16 -7 -106 -9 -200 -3 -176 13 -320 51 -458 22 -81 91 -261 119 -312 13 -22
35 -64 51 -93 71 -133 267 -359 394 -455 30 -23 57 -45 60 -48 27 -33 272
-166 385 -208 33 -13 69 -27 80 -31 18 -7 147 -40 215 -54 132 -28 436 -29
585 -1 431 79 804 315 1062 674 106 147 236 428 259 559 3 15 9 43 14 62 5 19
11 58 15 85 4 28 9 66 11 85 3 19 6 94 6 165 0 215 -28 374 -104 580 -211 573
-734 989 -1338 1065 -74 9 -267 19 -273 14z m270 -645 c388 -84 695 -376 792
-754 22 -85 24 -104 27 -240 3 -155 -13 -253 -61 -380 -204 -543 -820 -813
-1355 -596 -159 65 -331 195 -434 330 -83 108 -173 303 -190 411 -3 19 -8 46
-11 60 -11 47 -12 225 -3 293 58 432 390 789 816 877 120 24 304 24 419 -1z"/>
<path d="M5277 3314 c-1 -1 -38 -4 -82 -7 -44 -3 -105 -11 -135 -17 -30 -6
-66 -13 -80 -16 -55 -11 -171 -45 -215 -63 -11 -5 -45 -19 -75 -31 -120 -48
-333 -180 -420 -260 -187 -172 -293 -304 -389 -483 -39 -73 -116 -258 -126
-302 -2 -11 -11 -45 -19 -75 -40 -142 -59 -395 -43 -560 22 -213 80 -411 178
-600 166 -321 432 -581 750 -733 93 -45 249 -102 319 -118 19 -4 44 -9 55 -12
99 -22 184 -31 320 -31 182 -1 256 5 384 33 626 137 1125 637 1262 1264 27
122 34 199 34 357 -1 186 -10 264 -51 419 -112 428 -397 799 -785 1019 -75 42
-118 63 -224 108 -65 27 -222 69 -315 85 -89 15 -332 31 -343 23z m219 -634
c21 -5 53 -11 69 -14 170 -29 365 -137 507 -278 226 -225 333 -538 296 -865
-37 -326 -259 -637 -565 -792 -292 -147 -667 -140 -953 17 -130 71 -270 197
-357 318 -60 85 -142 269 -156 350 -3 16 -10 52 -16 79 -11 52 -8 297 3 350
27 119 71 239 124 329 153 263 417 448 712 500 86 15 278 19 336 6z"/>
</g>
</svg>
