<?xml version="1.0" encoding="UTF-8"?> <svg xmlns="http://www.w3.org/2000/svg" fill="none" viewBox="0 0 246 139"><path fill="#12171D" d="M93.8 57.56a6.21 6.21 0 0 0-4.36-4.37c-3.88-1.07-19.38-1.07-19.38-1.07s-15.5 0-19.37 1.03a6.34 6.34 0 0 0-4.36 4.41C45.3 61.45 45.3 69.5 45.3 69.5s0 8.1 1.02 11.94a6.21 6.21 0 0 0 4.36 4.37c3.92 1.07 19.37 1.07 19.37 1.07s15.5 0 19.38-1.03a6.21 6.21 0 0 0 4.36-4.37c1.02-3.89 1.02-11.94 1.02-11.94s.04-8.1-1.02-11.98Z"></path><path fill="#fff" d="M65.13 62.06v14.88l12.89-7.44-12.9-7.44Z"></path><path fill="#12171D" d="M117.2 83.77a5.29 5.29 0 0 1-2.07-3.1c-.4-1.4-.61-3.28-.61-5.57v-3.15c0-2.33.24-4.2.7-5.64a5.83 5.83 0 0 1 2.2-3.1 7.18 7.18 0 0 1 3.95-.99c1.59 0 2.9.33 3.87.98a5.67 5.67 0 0 1 2.12 3.11c.45 1.4.7 3.27.7 5.64v3.15c0 2.33-.2 4.17-.66 5.6a5.67 5.67 0 0 1-2.12 3.1c-.97.66-2.32.99-4 .99-1.7-.04-3.1-.37-4.07-1.02Zm5.52-3.44c.28-.7.4-1.88.4-3.47v-6.79c0-1.55-.12-2.7-.4-3.43-.3-.74-.74-1.07-1.43-1.07-.66 0-1.14.37-1.39 1.07-.29.73-.4 1.88-.4 3.43v6.79c0 1.6.11 2.78.4 3.47.25.7.73 1.07 1.43 1.07.65 0 1.1-.33 1.39-1.07ZM192.5 76.25c0 1.39.04 2.45.12 3.14.08.7.24 1.23.53 1.52.24.32.65.49 1.22.49.74 0 1.22-.29 1.51-.86.29-.57.4-1.51.45-2.86l4.2.24c.04.2.04.45.04.78 0 2-.53 3.51-1.63 4.5-1.1.98-2.65 1.47-4.65 1.47-2.4 0-4.08-.78-5.06-2.3-.98-1.5-1.47-3.83-1.47-7.02v-3.8c0-3.28.5-5.65 1.51-7.16 1.02-1.51 2.74-2.25 5.14-2.25 1.67 0 2.98.33 3.88.94a5 5 0 0 1 1.87 2.86c.37 1.31.53 3.11.53 5.4v3.72h-8.2v1.19Zm.6-10.27c-.24.33-.4.82-.48 1.52-.08.7-.13 1.75-.13 3.19v1.55h3.6v-1.55c0-1.4-.05-2.46-.13-3.2a2.8 2.8 0 0 0-.53-1.5 1.47 1.47 0 0 0-1.14-.46c-.57-.04-.94.13-1.18.45ZM105.3 74.73l-5.55-20.15h4.86l1.95 9.11c.5 2.25.86 4.17 1.1 5.77h.13c.16-1.15.53-3.03 1.1-5.72l2.04-9.16h4.85l-5.63 20.15v9.65h-4.8v-9.65h-.05ZM143.84 62.63v21.8h-3.83l-.41-2.67h-.12c-1.02 2-2.61 3.03-4.7 3.03-1.42 0-2.48-.49-3.17-1.43-.7-.94-1.02-2.41-1.02-4.46V62.63h4.89v15.99a5 5 0 0 0 .33 2.08c.2.41.57.62 1.06.62.4 0 .81-.13 1.22-.41a2 2 0 0 0 .86-.98v-17.3h4.9ZM168.92 62.63v21.8h-3.83l-.4-2.67h-.13c-1.02 2-2.61 3.03-4.7 3.03-1.42 0-2.48-.49-3.17-1.43-.7-.94-1.02-2.41-1.02-4.46V62.63h4.9v15.99a5 5 0 0 0 .32 2.08c.2.41.57.62 1.06.62.4 0 .81-.13 1.22-.41.41-.25.7-.58.86-.98v-17.3h4.9Z"></path><path fill="#12171D" d="M157.14 58.54h-4.86v25.84h-4.77V58.54h-4.85v-3.96h14.48v3.96ZM185.11 66.1a5.52 5.52 0 0 0-1.42-2.98 3.89 3.89 0 0 0-2.74-.94c-.9 0-1.75.25-2.52.78a5 5 0 0 0-1.8 2h-.04V53.47h-4.73v30.91h4.04l.49-2.04h.12c.37.73.94 1.3 1.71 1.76.78.4 1.6.65 2.53.65 1.67 0 2.85-.78 3.63-2.29.78-1.51 1.18-3.92 1.18-7.15v-3.44a32.9 32.9 0 0 0-.45-5.76Zm-4.48 8.88c0 1.6-.08 2.82-.2 3.72-.13.9-.37 1.55-.66 1.92-.33.37-.73.57-1.22.57-.41 0-.78-.08-1.1-.28-.33-.2-.61-.5-.82-.86V67.7c.16-.57.45-1.06.86-1.47.4-.37.85-.57 1.3-.57.5 0 .9.2 1.14.57.29.4.45 1.06.57 1.96.13.94.17 2.25.17 3.93v2.86h-.04Z"></path></svg> 