<?xml version="1.0" encoding="UTF-8"?> <svg xmlns="http://www.w3.org/2000/svg" fill="none" viewBox="0 0 245 149"><path fill="#fff" fill-rule="evenodd" d="M184.99 66.39h-4.1v5.16c-1.36-3.56-4.04-5.42-8.03-5.47-3.67.05-6.3 1.75-7.92 5.06-.52-3.3-2.83-5.01-6.88-5.01a5.87 5.87 0 0 0-4.2 1.34V59l-4.14 1.03v20.1l-2.2.46c-1.58-.05-2.42-.93-2.52-2.53v-8.32h3.62V66.4H145v-4.96l-4.1 1.4v3.56h-1.3v3.35h1.3v4.13a8.7 8.7 0 0 0-2.57-5.16 9.22 9.22 0 0 0-6.45-2.63c-2.1 0-3.94.56-5.4 1.7v-1.65c-2.74-.31-4.68.3-6 1.9V66.5h-3.98v17.1h3.94V73.04c.63-2.53 1.99-3.67 4.25-3.56-1.32 1.6-2 3.4-2 5.52 0 2.48.9 4.6 2.68 6.35a8.99 8.99 0 0 0 6.5 2.64c2.42 0 4.57-.88 6.46-2.64a8.87 8.87 0 0 0 2.57-5.1v2.47c.11 1.55.53 2.74 1.37 3.62.94 1.13 2.25 1.65 3.99 1.65l3.46-.41h4.15V71.24c.73-1.14 2-1.75 3.67-1.75 2.05.1 3.2 1.13 3.46 3.04V83.6h4.1V79.7c1.83 3.05 4.4 4.44 7.76 4.19 1.63 0 3.15-.21 4.67-.73V79.2a7.18 7.18 0 0 1-4.35 1.4c-3.1-.2-4.67-1.7-4.78-4.39h12.5v7.39h3.98v-9.97c.53-3.05 2.05-4.45 4.62-4.13a20.75 20.75 0 0 0-2.2-3c-.95.05-1.74.62-2.31 1.55v-1.65Zm-49.28 5a4.6 4.6 0 0 1 1.63 3.62c0 1.5-.53 2.74-1.63 3.77a5.12 5.12 0 0 1-3.73 1.5 4.99 4.99 0 0 1-3.78-1.5 5.07 5.07 0 0 1-1.57-3.77c0-1.45.53-2.63 1.57-3.61a5.01 5.01 0 0 1 3.78-1.66c1.37 0 2.63.57 3.73 1.66Zm41.4 1.81h-8.5c.32-2.37 1.68-3.61 4.1-3.77 2.62-.1 4.09 1.2 4.4 3.77Z" clip-rule="evenodd"></path><path fill="#12171D" fill-rule="evenodd" d="M137.1 75.17c0-1.6-.52-2.9-1.6-4a4.96 4.96 0 0 0-3.7-1.82c-1.5 0-2.7.63-3.74 1.83a5.53 5.53 0 0 0-1.56 4c0 1.65.52 3.02 1.56 4.16A4.68 4.68 0 0 0 131.8 81a4.8 4.8 0 0 0 3.7-1.66 5.75 5.75 0 0 0 1.6-4.17Zm30.98-2h8.42c-.31-2.85-1.77-4.28-4.37-4.16-2.39.17-3.74 1.54-4.05 4.16Z" clip-rule="evenodd"></path><path fill="#12171D" fill-rule="evenodd" d="M180.76 66.25h4.09v1.7c.57-.95 1.36-1.54 2.3-1.6-3.3-3.73-8.8-7.04-16.6-9.87-13.19-5.02-29.2-7.48-48-7.48-18.84 0-34.91 2.46-48.16 7.48-2.25.8-4.55 1.81-6.96 2.99 4.4.42 6.75 2.4 7.07 6.03.1 1.98-.9 3.58-2.93 4.8 3.03 1.24 4.5 3.43 4.44 6.58-.26 4-2.77 6.4-7.53 7.1h-8.64v-19.6c-3.56 3.2-5.34 6.57-5.34 10.15 0 7 6.65 13.03 19.9 18 13.24 4.9 29.25 7.42 48.15 7.47 18.85-.05 34.87-2.56 48-7.48 13.3-5.02 19.95-11.05 19.95-18 0-1.7-.37-3.36-1.15-5.07-2.57-.32-4.09 1.12-4.6 4.28v10.3h-3.99V76.4h-12.45c.1 2.77 1.67 4.32 4.76 4.53 1.62 0 3.09-.48 4.34-1.44v4.11c-1.51.54-3.03.75-4.66.75-3.35.27-5.91-1.17-7.74-4.32v4h-4.09V72.6c-.26-1.97-1.41-3.04-3.45-3.15-1.68 0-2.93.64-3.67 1.82v12.76h-4.13l-3.46.43c-1.72 0-3.03-.54-3.98-1.71-.83-.9-1.25-2.14-1.36-3.74v-2.56a9.3 9.3 0 0 1-2.56 5.28 9.03 9.03 0 0 1-12.93 0 9.05 9.05 0 0 1-2.67-6.56c0-2.2.68-4.06 1.99-5.72-2.25-.1-3.61 1.07-4.24 3.69v10.9h-3.93V66.34h3.98v1.6c1.3-1.65 3.24-2.29 5.97-1.97v1.71a8.41 8.41 0 0 1 5.39-1.76 9.13 9.13 0 0 1 9 8.06v-4.27h-1.3v-3.47h1.3v-3.69l4.09-1.44v5.13h3.6v3.47h-3.6v8.6c.1 1.65.94 2.56 2.5 2.61l2.2-.48V59.68l4.14-1.07v8.76a5.72 5.72 0 0 1 4.2-1.39c4.02 0 6.33 1.76 6.85 5.18 1.62-3.42 4.24-5.18 7.9-5.23 3.98.05 6.65 1.97 8.01 5.66v-5.34Zm-103.7-6.2c.58-.48 1.15-.69 1.73-.69.52 0 1.1.21 1.62.7.4.46.68 1.04.79 1.65-.1.75-.37 1.28-.79 1.7-.36.44-.94.7-1.62.81a3.29 3.29 0 0 1-1.73-.8 2.28 2.28 0 0 1-.63-1.71c0-.59.21-1.12.63-1.66Zm-.42 9.62h-1.62v-3.31h5.65v17.67h-4.03V69.67Zm17.44-4.7 2.77 2.56-1.99 1.55a7.62 7.62 0 0 1 1.15 3.68c0 2.03-.63 3.64-1.99 4.86a6.57 6.57 0 0 1-5.18 1.71l-1.41-.16c-.84.22-1.31.64-1.42 1.18 0 .59.95.7 2.78.37l2.98-.37c1.57.05 2.78.48 3.67 1.23a5.5 5.5 0 0 1 1.52 3.57c-.37 3.74-3.15 5.66-8.38 5.88-3.09-.27-5.4-1.12-6.96-2.51l2.46-3.1c1.15 1.17 2.82 1.82 4.92 2.03 2.46-.27 3.77-.96 3.93-2.03.15-1.39-1.37-1.87-4.66-1.44l-2.52.16c-1.99-.1-3.24-1.02-3.66-2.72 0-1.66.84-2.73 2.51-3.37l-1-.75a5.7 5.7 0 0 1-2.2-4.59 6.34 6.34 0 0 1 2.1-4.86 7.53 7.53 0 0 1 5.18-1.92c1.42 0 2.67.32 3.77.9l1.63-1.86Zm5.44-5.29 7.59-.16c4.4.43 6.75 2.46 7.01 6.04.27 1.92-.73 3.47-2.93 4.75 3.1 1.28 4.61 3.52 4.5 6.67-.3 4-2.82 6.36-7.48 7.05h-8.7V59.68Zm45.12 30.7c5.66.11 10.94-1.33 15.76-4.32-5.44 4-11.25 6.52-17.33 7.32-6.17.7-11.46.7-15.86 0l-16.28-2.73c-6.54-1.06-13.03 0-19.42 3.32l-.1-.16c6.44-4.76 14.44-6.95 24.13-6.73a92 92 0 0 1 17.27 1.97c3.88.8 7.85 1.29 11.83 1.34Z" clip-rule="evenodd"></path><path fill="#fff" fill-rule="evenodd" d="M79.28 59c-.58 0-1.16.22-1.73.7a2.66 2.66 0 0 0-.63 1.67c0 .76.2 1.3.63 1.73.42.43 1 .65 1.73.81.68-.1 1.26-.38 1.63-.8.42-.44.68-.98.78-1.74-.1-.62-.38-1.2-.78-1.67-.53-.48-1.1-.7-1.63-.7ZM75.5 69.41h1.63v14.52h4.04V66.07H75.5v3.34Zm21.9-2.15-2.79-2.6-1.63 1.9a7.87 7.87 0 0 0-3.78-.92c-2 0-3.78.64-5.2 1.94a6.42 6.42 0 0 0-2.1 4.91c0 1.89.74 3.4 2.21 4.64l1 .76c-1.68.64-2.52 1.73-2.52 3.4.42 1.72 1.68 2.64 3.67 2.75l2.52-.16c3.31-.43 4.84.05 4.68 1.46-.16 1.07-1.47 1.77-3.94 2.05-2.1-.22-3.78-.87-4.94-2.05l-2.46 3.12c1.57 1.4 3.88 2.27 6.98 2.54 5.25-.22 8.03-2.16 8.4-5.94a5.57 5.57 0 0 0-1.52-3.61 5.8 5.8 0 0 0-3.68-1.24l-3 .38c-1.83.32-2.77.21-2.77-.38.1-.54.57-.97 1.41-1.19l1.42.16c2 .16 3.73-.38 5.2-1.72a6.26 6.26 0 0 0 2-4.91 7.74 7.74 0 0 0-1.16-3.73l2-1.56Zm-4.78 5.23c0 .92-.32 1.73-1 2.43a3.37 3.37 0 0 1-4.83 0 3.41 3.41 0 0 1-1.05-2.43 3.1 3.1 0 0 1 1.05-2.48 3.2 3.2 0 0 1 2.41-1.03c.84 0 1.68.33 2.42 1.03.68.6 1 1.4 1 2.48Z" clip-rule="evenodd"></path><path fill="#12171D" fill-rule="evenodd" d="M91.48 74.97c.7-.7 1.02-1.52 1.02-2.44 0-1.09-.32-1.9-1.02-2.5A3.54 3.54 0 0 0 89.03 69c-.97 0-1.77.33-2.46 1.03a3.1 3.1 0 0 0-1.07 2.5c0 .92.37 1.73 1.07 2.44a3.45 3.45 0 0 0 4.92 0Z" clip-rule="evenodd"></path><path fill="#fff" fill-rule="evenodd" d="m107 60-7.5.16V84h8.6c4.6-.68 7.09-2.98 7.4-6.9.1-3.09-1.4-5.28-4.46-6.54 2.18-1.25 3.16-2.77 2.9-4.65-.26-3.5-2.59-5.5-6.93-5.91Zm.1 3.56c1.87.2 2.8 1.15 2.7 2.87 0 1.73-.98 2.72-2.95 2.98h-3.05v-5.85h3.3Zm.06 9.1c2.85.26 4.14 1.61 3.88 4.02 0 2.51-1.4 3.82-4.09 3.87h-3.15v-7.9h3.36Z" clip-rule="evenodd"></path><path fill="#12171D" fill-rule="evenodd" d="M110.1 65.88c.11-1.73-.91-2.67-2.96-2.88h-3.64v5.86h3.36c2.16-.26 3.24-1.26 3.24-2.98Zm1.36 10.25c.29-2.4-1.13-3.77-4.26-4.03h-3.7V80h3.47c2.96-.05 4.5-1.36 4.5-3.87Z" clip-rule="evenodd"></path><path fill="#fff" fill-rule="evenodd" d="M160.5 86.21a28.38 28.38 0 0 1-15.67 4.26 62.89 62.89 0 0 1-11.76-1.31 92.32 92.32 0 0 0-17.18-1.95c-9.63-.2-17.6 1.95-24 6.63l.1.16c6.35-3.26 12.8-4.32 19.32-3.26l16.19 2.68c4.37.68 9.63.68 15.77 0 6.04-.79 11.82-3.26 17.23-7.21ZM68.05 60a41.24 41.24 0 0 0-7.55 4.84v19.32h8.59c4.74-.69 7.24-3.05 7.5-7 .05-3.1-1.41-5.27-4.43-6.48 2.03-1.2 3.02-2.79 2.92-4.73-.32-3.58-2.66-5.53-7.03-5.95Zm-3.23 20.68v-7.94h3.38c2.82.31 4.17 1.68 3.96 4-.05 2.52-1.46 3.84-4.22 3.94h-3.12Zm0-11.2v-5.85h3.28c.94.05 1.61.32 2.13.79.47.47.73 1.16.73 2-.05.9-.3 1.58-.83 2.05-.52.48-1.25.8-2.29 1h-3.02Z" clip-rule="evenodd"></path><path fill="#12171D" fill-rule="evenodd" d="M64.5 63v5.82h2.87a4.34 4.34 0 0 0 2.18-1c.5-.46.74-1.15.8-2.04 0-.84-.26-1.52-.7-2a3.04 3.04 0 0 0-2.03-.78H64.5Zm0 9.08V80h2.97c2.62-.1 3.96-1.42 4.01-3.93.2-2.31-1.09-3.68-3.76-4H64.5Z" clip-rule="evenodd"></path><path fill="#fff" fill-rule="evenodd" d="M105.8 50.75A129.5 129.5 0 0 0 82.5 55l-7.79 2.58a69.44 69.44 0 0 0-9.77 4.58 22.05 22.05 0 0 0-7.12 6.25A11.56 11.56 0 0 0 55.5 74c6.63-13.21 28.95-21.21 67-24l-16.7.75Z" clip-rule="evenodd"></path><path fill="#12171D" fill-rule="evenodd" d="M58.85 64.4c-3.46 3.17-5.3 6.58-5.3 10.1 0 3.52 1.84 6.93 5.3 10.1 3.46 3.16 8.49 6.04 14.75 8.47 12.51 4.86 29.81 7.88 48.9 7.88s36.39-3.02 48.9-7.88c6.26-2.43 11.3-5.3 14.75-8.47 3.46-3.17 5.3-6.58 5.3-10.1 0-3.52-1.84-6.93-5.3-10.1-3.46-3.16-8.49-6.04-14.75-8.47-12.51-4.86-29.81-7.88-48.9-7.88s-36.39 3.02-48.9 7.88c-6.26 2.43-11.3 5.3-14.75 8.47Zm14.37-9.45C85.88 50.04 103.32 47 122.5 47s36.62 3.04 49.28 7.95c6.33 2.46 11.49 5.4 15.07 8.68 3.6 3.28 5.65 6.96 5.65 10.87 0 3.91-2.06 7.59-5.65 10.87-3.58 3.28-8.74 6.22-15.07 8.68-12.66 4.91-30.1 7.95-49.28 7.95s-36.62-3.04-49.28-7.95c-6.33-2.46-11.49-5.4-15.08-8.68-3.58-3.28-5.64-6.96-5.64-10.87 0-3.91 2.06-7.59 5.64-10.87 3.6-3.28 8.75-6.22 15.08-8.68Z" clip-rule="evenodd"></path></svg> 