<?xml version="1.0" encoding="UTF-8"?> <svg xmlns="http://www.w3.org/2000/svg" fill="none" viewBox="0 0 245 139"><path fill="#12171D" fill-rule="evenodd" d="M156.18 56.1c0-.9-.81-1.7-1.83-1.7h-2.54c-1.02 0-1.84.8-1.84 1.7l.1 26.8c0 .9.72 1.7 1.74 1.7h2.54c1.02 0 1.83-.8 1.83-1.7V56.1ZM159.44 56.9v1.2c0 .6.4 1 1.02 1h17.9c.82 0 1.53-.7 1.53-1.5v-2.1c0-.8-.71-1.6-1.53-1.5 0 0-17.3 1.7-17.9 1.8-.62 0-1.02.5-1.02 1.1ZM144.89 84.6c-4.48 0-7.23-3.3-7.23-7V66.9h-1.32c-.61 0-1.22-.6-1.22-1.2v-1.8c0-.7.6-1.2 1.22-1.2h1.32v-6.6c0-.9.71-1.7 1.73-1.7h2.54c.92 0 1.63.8 1.63 1.7v6.6h3.97c.71 0 1.22.5 1.22 1.2v1.8c0 .6-.5 1.2-1.22 1.2h-3.97v9.9c0 1.9 1.22 3.3 3.36 3.3h.4c.72 0 1.33.5 1.33 1.3v1.9c0 .7-.6 1.3-1.32 1.3h-2.44ZM114.36 73.3c0-5.7-3.46-11.4-11.3-11.4-7.22 0-11.19 5.6-11.19 11.4 0 6.2 4.27 11.7 11.3 11.7 4.78 0 9.46-2.4 10.37-6.5.1-.5-.3-1.3-1.01-1.3h-3.46c-.61 0-1.12.3-1.43.8-1.02 1.4-2.44 2.1-4.47 2.1a5.23 5.23 0 0 1-5.3-4.9h14.55c1.33 0 1.94-.7 1.94-1.9Zm-16.38-2.4c.2-2.5 2.44-4.4 5.08-4.4a5.2 5.2 0 0 1 5.3 4.4H97.98ZM180.5 73.3c0-5.7-3.46-11.4-11.3-11.4-7.22 0-11.19 5.6-11.19 11.4 0 6.2 4.28 11.7 11.3 11.7 4.78 0 9.46-2.4 10.38-6.5.1-.5-.31-1.3-1.02-1.3h-3.46c-.61 0-1.12.3-1.43.8-1.01 1.4-2.44 2.1-4.57 2.1a5.2 5.2 0 0 1-5.2-4.9h14.56c1.32 0 1.93-.7 1.93-1.9Zm-16.38-2.4c.2-2.5 2.44-4.4 5.09-4.4 2.74 0 4.98 1.9 5.19 4.4h-10.28Z" clip-rule="evenodd"></path><path fill="#12171D" fill-rule="evenodd" d="M132.78 54.7H85.77c-1.12 0-1.94.9-1.94 1.9l.1 18.2-10.58-18.9a3.5 3.5 0 0 0-3.05-1.7h-3.87c-1.12 0-1.93.9-1.93 1.9v26.6c0 1.1.81 1.9 1.93 1.9h2.44c1.12 0 1.94-.8 1.94-1.9l-.1-18.6s10.17 18.1 10.68 18.8c.51 1 1.53 1.7 2.95 1.7h3.56c1.12 0 1.94-.8 1.94-1.9V59.2h42.94c.7 0 1.32-.6 1.32-1.3V56c0-.7-.61-1.3-1.32-1.3Z" clip-rule="evenodd"></path><path fill="#12171D" fill-rule="evenodd" d="M125.14 66.3c2.04 0 3.57.7 4.18 2 .2.6.7.7 1.42.7h2.85c.4 0 1.02-.4 1.02-1 0-3.2-3.97-6.1-9.47-6.1-5.7 0-9.46 2.7-9.46 6.9 0 3.3 2.65 5.2 5.8 6.1 1.53.3 4.07.9 5.3 1.3 1.21.3 2.44.7 2.44 1.8 0 1.8-1.84 2.3-3.97 2.3-1.94 0-3.87-.8-4.38-2.2-.3-.8-.92-.9-1.73-.9h-2.85c-.5 0-1.12.5-1.12 1.1v.4c0 3.1 4.28 6.3 10.18 6.3 4.07 0 9.87-1.7 9.87-7.1 0-3.2-2.14-5.4-5.7-6.3-1.32-.3-4.58-1.2-5.3-1.3-1.31-.4-2.53-.8-2.53-1.8 0-1.7 1.52-2.2 3.45-2.2Z" clip-rule="evenodd"></path></svg> 