<?xml version="1.0" encoding="UTF-8"?> <svg xmlns="http://www.w3.org/2000/svg" fill="none" viewBox="0 0 246 139"><path fill="#12171D" fill-rule="evenodd" d="M107.3 48.66c-.15-.54-.22-1-.22-1.53 0-2.3 1.53-4.38 4.3-4.38.62 0 1.16.08 1.62.23.46-.38 1-.77 1.54-1.07-.93-.54-2-.85-3.16-.85a6.17 6.17 0 0 0-6.23 6.07c0 1.15.39 2.3.92 3.22.16-.23.31-.46.47-.61.23-.39.54-.77.77-1.08ZM115.61 42.68c-.53.3-1 .6-1.46 1 1 .76 1.54 2.06 1.54 3.45 0 2.3-1.7 4.3-4.3 4.3a4.13 4.13 0 0 1-3.4-1.62c-.14.23-.3.39-.45.62-.23.3-.46.61-.62.92a6.49 6.49 0 0 0 4.46 1.76 6.06 6.06 0 0 0 6.23-5.98 5.9 5.9 0 0 0-2-4.45ZM104.61 62.78a4.3 4.3 0 0 1-2.69 4.07v1.84a6.1 6.1 0 0 0 4.62-5.9 6.2 6.2 0 0 0-2.85-5.07c-.23.61-.38 1.15-.61 1.69 1 .84 1.53 2.07 1.53 3.37ZM100.7 67.16h-.4c-2.6 0-4.38-2-4.38-4.38 0-2.22 1.54-4.3 4.39-4.3.61 0 1.23.08 1.69.31.15-.53.3-1.07.54-1.6a7.16 7.16 0 0 0-2.23-.4 6.1 6.1 0 0 0-6.23 6 6.07 6.07 0 0 0 6.23 6.06h.38c0-.3-.08-.7-.08-1 0-.23.08-.46.08-.7ZM104.77 74.3c2.77 0 4.3 2.07 4.3 4.3 0 1.99-1.22 3.76-3.15 4.22.3.53.62 1 .92 1.53 2.39-.84 4.16-3 4.16-5.76 0-3.3-2.85-5.98-6.23-5.98a6 6 0 0 0-2.39.46c.08.54.16 1.15.31 1.69a4.6 4.6 0 0 1 2.08-.46ZM100.46 78.6c0-1.16.39-2.23 1.15-3.07-.15-.62-.3-1.23-.38-1.85a5.97 5.97 0 0 0-2.7 4.91 6.07 6.07 0 0 0 6.24 6.07c.23 0 .54 0 .77-.08-.31-.54-.7-1.07-1-1.61a4.22 4.22 0 0 1-4.08-4.38ZM135 72.84v6.98c0 1.62-.54 3.15-2.62 3.15-2.07 0-2.61-1.53-2.61-3.15v-6.98h-1.92v7.37c0 2.53 1.61 4.45 4.53 4.45 2.93 0 4.54-1.92 4.54-4.45v-7.37H135ZM136.54 51.27h5.23v1.61h-7.16V41.3h1.93v9.98ZM72.23 57.03H79v1.69h-4.85v2.76h4.77v1.69h-4.77v3.76H79v1.69h-6.77v-11.6ZM110.46 56.41l8 8.22v-7.6h1.92v12.05l-8-8.06v7.6h-1.92v-12.2ZM158.16 57.03h1.92v11.59h-1.93v-11.6ZM90.92 74.53v2.76h4.16v1.61h-4.16v5.53H89v-11.6h6.23v1.7h-4.3ZM98.61 48.5h.08l1.85-7.2h1.84l-3.23 12.04-4.07-8.67L91 53.34 87.7 41.3h1.91l1.85 7.22 3.62-7.45 3.53 7.45ZM143.08 61.4H143l-1.85 7.22h-1.84l3.23-12.05 4.08 8.75 4.07-8.75L154 68.62h-1.92l-1.85-7.22h-.08l-3.53 7.52-3.54-7.52ZM144.08 77.21l-1.85 7.22h-1.92l3.23-12.05 4.15 8.67 4.08-8.67L155 84.43h-1.92l-1.85-7.22-3.54 7.45-3.61-7.45ZM118.23 72.84c1.08 0 2.3 0 3.23.54 1 .53 1.62 1.68 1.62 2.76a3.13 3.13 0 0 1-2.85 3.22l3.7 5.07h-2.16l-3.46-4.91H117v4.9h-1.92V72.85h3.15ZM117 77.98h.84c1.54 0 3.39.08 3.39-1.76 0-1.85-1.92-1.77-3.46-1.77H117v3.53ZM124.77 41.3c1.08 0 2.3 0 3.23.53 1 .54 1.54 1.69 1.54 2.76 0 1.7-1.08 3.07-2.85 3.23l3.77 5.06h-2.15l-3.54-4.9h-1.23v4.9h-1.93V41.3h3.16Zm-1.23 5.14h.84c1.54 0 3.31.07 3.31-1.77s-1.92-1.76-3.38-1.76h-.77v3.53ZM147.08 51.27h1.07c2.54 0 4.93-.92 4.93-4.22 0-3.38-2.39-4.14-4.93-4.14h-1.07v8.36Zm-1.93-9.98h3.16c3.69 0 6.69 1.77 6.69 5.76 0 4-2.92 5.83-6.7 5.83h-3.15V41.3ZM172.77 66.62a3.9 3.9 0 0 1-2.15.54 4.2 4.2 0 0 1-4.31-4.3c0-2.3 1.54-4.37 4.3-4.37.85 0 1.54.15 2.16.46l.92-1.38a6.51 6.51 0 0 0-3.07-.77 6.17 6.17 0 0 0-6.23 6.06 6.1 6.1 0 0 0 6.23 5.99 6.2 6.2 0 0 0 3.15-.77l-1-1.46ZM91 66.62c-.62.39-1.3.54-2.08.54a4.22 4.22 0 0 1-4.38-4.3c0-2.3 1.53-4.37 4.38-4.37.77 0 1.46.15 2.08.46l1-1.38c-.92-.47-2-.77-3.08-.77a6.12 6.12 0 0 0-6.23 6.06 6.05 6.05 0 0 0 6.23 5.99 6.1 6.1 0 0 0 3.08-.77l-1-1.46ZM134.92 62.86c0-2.3-1.53-4.37-4.3-4.37-2.85 0-4.39 2.07-4.39 4.37 0 2.38 1.77 4.3 4.39 4.3a4.2 4.2 0 0 0 4.3-4.3Zm1.93 0a6.1 6.1 0 0 1-6.23 5.99 6.05 6.05 0 0 1-6.23-5.99 6.12 6.12 0 0 1 6.23-6.06 6.17 6.17 0 0 1 6.23 6.06Z" clip-rule="evenodd"></path><path fill="#12171D" fill-rule="evenodd" d="m153.85 92.03-.03.02-.28-.33a32.09 32.09 0 0 1-20.38 7.21 31.86 31.86 0 0 1-22.55-9.13c-6-5.83-9.3-13.66-9.3-21.95a30.3 30.3 0 0 1 5.69-17.8 31.51 31.51 0 0 1 14.77-11.21l-.23-.62a32.2 32.2 0 0 0-15 11.44 31.15 31.15 0 0 0-5.93 18.19 31.1 31.1 0 0 0 11.34 24.02l-.8.92a34.13 34.13 0 0 0 22 7.99c7.93 0 15.54-2.77 21.62-7.68l-.92-1.07Z" clip-rule="evenodd"></path></svg> 