<?xml version="1.0" encoding="UTF-8"?> <svg xmlns="http://www.w3.org/2000/svg" fill="none" viewBox="0 0 246 139"><path fill="#12171D" d="M75.32 84.85c-1.98.34-4 .45-6.08.72L62.9 67.13v19.23c-1.98.2-3.78.48-5.66.76V51.88h5.28l7.22 20v-20h5.59v32.97Zm10.93-20.06c2.16 0 5.45-.1 7.43-.1v5.5c-2.46 0-5.34 0-7.43.1v8.2c3.27-.22 6.53-.5 9.83-.6v5.3L80.7 84.4V51.88h15.38v5.5h-9.83v7.4Zm30.48-7.4h-5.76V82.7c-1.87 0-3.75 0-5.55.07v-25.4h-5.77v-5.5h17.08v5.5Zm9.03 7.02h7.6v5.5h-7.6v12.5h-5.45V51.87h15.52v5.5h-10.07v7.03Zm19.1 13.18c3.15.07 6.35.3 9.44.48v5.44c-4.97-.31-9.93-.62-15-.73v-30.9h5.55v25.7Zm14.12 6.3c1.77.1 3.65.2 5.45.4V51.9h-5.45v32Zm29.79-32-7.05 16.75 7.05 18.48c-2.08-.28-4.17-.66-6.25-1l-4-10.19-4.05 9.36c-2.02-.34-3.96-.44-5.97-.72l7.15-16.14-6.46-16.55h5.97l3.65 9.26 3.88-9.26h6.08Z"></path></svg> 