<?xml version="1.0" encoding="UTF-8"?> <svg xmlns="http://www.w3.org/2000/svg" fill="none" viewBox="0 0 245 139"><path fill="#12171D" d="M171.71 46.1c.02.07 0 .14-.01.2-.47 2.26-.96 4.53-1.44 6.77l-1.35 6.41c-.5 2.3-.98 4.61-1.47 6.92l-1.13 5.34c-.16.72-.31 1.43-.45 2.15l-.01.07c0 .03-.02.03-.03.03l-.04-.01-.1-.19-4.4-8.74c-1.04-2.05-2.04-4.1-3.08-6.15-.44-.9-.9-1.8-1.37-2.7a15.32 15.32 0 0 1-1.19-3.73 3.9 3.9 0 0 1-.06-.71v-.5a4.37 4.37 0 0 1 1.2-3.06c.43-.46.93-.82 1.5-1.08a7.84 7.84 0 0 1 2-.66 15.82 15.82 0 0 1 2.58-.34l.08-.03 8.77.01ZM73.3 73.42c.04-.01.07-.05.08-.08l.01-.09c0-.53.16-1.04.25-1.57l.69-3.37.74-3.61c.2-1.05.43-2.1.64-3.14l.69-3.37v-.02c.01-.12.04-.23.1-.34.1-.02.23-.03.34-.02h3.85c.12 0 .12.02.1.13l-.66 3.35c-.25 1.27-.52 2.53-.78 3.8l-.58 2.99-.42 2.06c-.16.8-.26 1.6-.32 2.4-.05.7-.01 1.4.11 2.06.06.3.16.62.3.92.35.79 1.03 1.38 1.87 1.58a5.76 5.76 0 0 0 3.67-.42 6.18 6.18 0 0 0 2.64-2.42c.47-.75.79-1.59.98-2.45.48-2.05.92-4.1 1.34-6.15.4-1.87.77-3.73 1.15-5.6.14-.7.3-1.39.43-2.1l.02-.08c0-.04.04-.08.1-.07H94.3c.26 0 .25 0 .2.24a23100.03 23100.03 0 0 1-2.43 11.32l-.8 3.67c-.03.16-.09.31-.15.46l-.28.66c-.2.5-.48.96-.8 1.39-.27.34-.5.67-.79 1a9.62 9.62 0 0 1-4.72 3.03c-.69.2-1.38.32-2.08.4l-.35.05c-.25.04-.52.06-.77.04H79.9a7.9 7.9 0 0 1-1.28-.11c-.56-.1-1.12-.23-1.66-.38a4.53 4.53 0 0 1-2.6-1.87 5.65 5.65 0 0 1-.94-2.38c-.03-.12-.03-.27-.05-.4-.02-.06-.02-.13-.09-.16l.03-1.35ZM77.04 92.87a3.4 3.4 0 0 1-.4-.1c-.44-.1-.83-.35-1.1-.72a1.8 1.8 0 0 1-.25-.52 2.49 2.49 0 0 1-.08-.64v-4.55c0-.27-.03-.24.24-.24h.49c.15 0 .15 0 .15.17v4.2c0 .3.07.59.2.86.19.45.62.75 1.11.75a1.4 1.4 0 0 0 1.52-1.29v-4.43c0-.3-.02-.26.28-.26h.47c.18 0 .18 0 .18.18v4.58c.03.88-.53 1.66-1.36 1.88-.1.04-.22.06-.35.09a.08.08 0 0 0-.07.04h-1.03ZM93.95 92.87c-.02-.02-.03-.03-.06-.03a2.06 2.06 0 0 1-1.56-1.39 2.91 2.91 0 0 1 .18-2.54c.26-.51.72-.9 1.28-1.03a2.45 2.45 0 0 1 1.68.12c.53.23.92.7 1.05 1.26.07.36.1.71.05 1.08 0 .07-.02.08-.1.08H93.16c-.08 0-.1.02-.1.12-.01.2.02.4.07.58.16.53.6.91 1.13 1.01.45.09.9 0 1.28-.24.06-.04.13-.14.22-.11.08.03.12.14.18.21l.21.34a.58.58 0 0 1-.3.24 3.94 3.94 0 0 1-.96.3l-.05.04-.88-.04Zm.47-3.14h1.1c.2 0 .21-.03.19-.23a.63.63 0 0 0-.09-.22 1.8 1.8 0 0 0-.49-.54.53.53 0 0 0-.23-.11 1.7 1.7 0 0 0-.93.04c-.47.17-.7.52-.83.99-.02.06.01.08.07.08l1.21-.01ZM162.66 92.87c-.01-.04-.06-.04-.08-.06a1.4 1.4 0 0 1-.94-1.27 1.5 1.5 0 0 1 .67-1.44c.3-.21.64-.36 1-.41.3-.07.62-.07.94 0 .06.01.1.03.16.03.03.01.07-.02.07-.05v-.01a.91.91 0 0 0-.5-.98 1.37 1.37 0 0 0-.58-.12c-.28 0-.56.05-.8.18-.1.04-.2.11-.29.18-.05.05-.07.05-.11 0a3.19 3.19 0 0 1-.32-.56c-.03-.07-.03-.11.04-.16.07-.04.14-.1.21-.12a2.7 2.7 0 0 1 1.66-.26c.25.04.5.1.73.18.17.06.3.16.4.3.28.37.44.8.45 1.27v2.1c0 .14.03.27.07.4.04.12.13.23.24.3.06.05.08.1.08.17v.34h-.44c-.06-.05-.14-.05-.2-.08-.2-.09-.36-.21-.5-.38-.03-.03-.03-.09-.09-.09-.16.19-.36.31-.6.4-.14.05-.3.1-.44.13a.22.22 0 0 0-.13.04l-.7-.03Zm1.79-1.88v-.52c0-.08-.01-.09-.1-.1-.15-.02-.3-.03-.46-.03-.3-.02-.61.07-.9.22a.9.9 0 0 0-.47 1c.01.25.2.46.45.52.35.1.71.05 1.02-.14.14-.1.26-.2.39-.32a.22.22 0 0 0 .08-.16l-.01-.47ZM111.44 92.87c-.02-.04-.06-.04-.08-.06a1.54 1.54 0 0 1-.44-2.59c.25-.2.56-.38.88-.46.21-.06.42-.1.63-.13.22-.01.45.01.66.07a.4.4 0 0 1 .12.03c.05.01.07-.01.09-.06v-.01a.95.95 0 0 0-.86-1.08c-.46-.08-.92.03-1.28.33-.03.01-.04.04-.07.06l-.02.01a.33.33 0 0 1-.16-.17c-.09-.14-.17-.3-.23-.45-.02-.04-.01-.09.03-.12l.13-.08c.68-.4 1.5-.47 2.25-.23.15.05.3.12.42.2.23.14.4.38.47.65l.04.16c.1.24.14.5.13.73v1.77c0 .2.04.4.1.6.03.12.1.24.2.3.06.05.09.13.09.22-.01.1-.01.21.01.3h-.4c-.02 0-.04 0-.06-.02-.3-.06-.57-.25-.72-.55-.2.2-.44.35-.7.42-.14.05-.27.07-.4.12a.13.13 0 0 0-.1.04h-.73Zm1.81-2.45-.02-.01a2.02 2.02 0 0 0-.97-.02c-.2.05-.39.13-.56.24a.99.99 0 0 0-.36 1.04c.04.2.2.36.4.42.16.06.33.07.5.04.36-.04.7-.22.96-.5.05-.06.08-.13.07-.2v-.92l-.02-.09ZM132.79 92.87c-.02-.01-.03-.03-.06-.03-.65-.13-1.2-.6-1.44-1.24a3.32 3.32 0 0 1-.07-2.35c.1-.31.28-.6.5-.84.36-.36.84-.59 1.35-.6.28-.03.54 0 .8.05.58.13 1.06.54 1.3 1.08a3.88 3.88 0 0 1 .15 2.33c-.06.26-.16.48-.3.7-.23.4-.61.7-1.06.84-.07.02-.15 0-.2.07l-.97-.01ZM132 90.4l.02.4c.02.22.07.43.17.65.14.35.48.59.84.63.11.02.22.02.34 0 .34-.03.67-.22.85-.54.07-.1.12-.24.17-.36.15-.53.16-1.06.05-1.6-.04-.19-.1-.36-.2-.52a1.01 1.01 0 0 0-.62-.5c-.58-.14-1.1.01-1.4.64l-.08.2c-.1.33-.14.67-.14 1ZM158.79 92.87c-.01-.03-.04-.03-.07-.04a2.29 2.29 0 0 1-1.76-2.15v-.57c0-.45.14-.9.38-1.3.23-.4.6-.7 1.03-.85a2.67 2.67 0 0 1 2.46.26c.07.04.08.07.03.14l-.3.45c0 .04-.05.06-.1.04l-.29-.14c-.39-.18-.83-.22-1.25-.11-.35.08-.63.31-.8.62-.11.2-.18.42-.22.65a3 3 0 0 0 .02 1.12c.03.15.1.3.17.44.2.36.56.62.97.68.32.05.64.01.93-.12.2-.08.4-.18.56-.3a8.18 8.18 0 0 1 .32.58c.06.12.06.13-.07.2a4.72 4.72 0 0 1-1.08.35c-.02 0-.06 0-.1.05h-.83ZM90.13 92.87c-.01-.07-.08-.06-.12-.07-.34-.14-.6-.4-.77-.72a1.4 1.4 0 0 1-.14-.62V88.66c0-.05-.02-.09-.11-.09h-.35c-.09 0-.1-.01-.1-.08v-.5c0-.07.01-.1.08-.1H89c.07 0 .1-.01.1-.08V86.93c0-.03.01-.06.04-.07.24-.11.49-.2.75-.28.05-.02.07.01.07.05v1.15c0 .08.02.11.1.11h1.13c.07 0 .1.02.1.09.02.18 0 .36-.01.56-.17.07-.35.02-.52.03h-.68c-.09 0-.1.01-.12.1v2.46c0 .25.09.5.23.72.15.24.43.35.7.28.2-.02.4-.1.6-.14.05.04.04.12.05.17l.1.51c.01.07-.01.1-.07.11-.12.03-.25.05-.38.06l-.49.06-.57-.03ZM142.88 79.7a.16.16 0 0 1 0-.11c1.94-9.23 3.88-18.47 5.84-27.7 0-.02.02-.02.04-.03l.11.2c1.2 2.4 2.42 4.79 3.62 7.2 1.28 2.57 2.57 5.13 3.84 7.7.43.86.85 1.74 1.3 2.6.25.48.46 1 .63 1.5.25.68.45 1.39.57 2.1.14.73.16 1.47.03 2.2-.17 1.06-.74 2.01-1.6 2.66-.55.42-1.18.75-1.84.96-.77.27-1.55.45-2.34.55-.41.06-.83.12-1.23.16l-.35.01h-8.43a.3.3 0 0 1-.2 0ZM99.86 57.84a.36.36 0 0 1 .2-.03h9.03a6.9 6.9 0 0 1 2.57.64c.4.18.76.42 1.06.72.53.5.88 1.15 1.01 1.85a5.13 5.13 0 0 1-1.5 4.88 7.6 7.6 0 0 1-1.64 1.19c-.5.27-1.01.48-1.53.66l-.12.05c-.02 0-.02.01-.03.04.24.04.46.08.7.14.56.13 1.09.34 1.56.64a3.48 3.48 0 0 1 1.8 2.76c.06.83-.02 1.66-.25 2.45a7.12 7.12 0 0 1-3.08 4.22c-.88.58-1.86 1-2.88 1.26-.53.14-1.08.21-1.6.3-.47.08-.94.12-1.4.1H95.6a.84.84 0 0 1-.27 0v-.1c1.53-7.26 3.02-14.52 4.52-21.77Zm.42 19.16c.08.03.16.03.25.03h3.13c.36 0 .74-.06 1.09-.17a6.98 6.98 0 0 0 3.52-2.62c.2-.28.33-.62.4-.96l.04-.28a3.8 3.8 0 0 0-.02-1.26 2.8 2.8 0 0 0-.76-1.47 3.56 3.56 0 0 0-.74-.56c-.4-.23-.85-.4-1.3-.49a6.93 6.93 0 0 0-1.62-.15l-2.1.06h-.15a.13.13 0 0 0-.12.1c-.02.02-.02.05-.02.08l-.75 3.69-.7 3.38c-.07.2-.11.41-.16.62Zm3.67-9.56h1.37c.11 0 .24-.03.35-.07l.18-.08c.53-.27 1.03-.57 1.55-.88a3.97 3.97 0 0 0 1.48-1.6c.14-.25.24-.54.28-.82.04-.35.11-.7.17-1.04l.01-.23a1.97 1.97 0 0 0-.44-1.13 2.42 2.42 0 0 0-.84-.62 3.61 3.61 0 0 0-1.68-.36l-2.6.06h-.11c-.07 0-.13.06-.14.13l-.04.24c-.07.68-.2 1.35-.32 2.03l-.09.4c-.1.52-.18 1.05-.29 1.57-.14.63-.25 1.29-.38 1.94l-.05.35c-.02.07.01.08.08.08h.15l1.36.03ZM114 79.65a.45.45 0 0 1 .1-.22l1.98-2.95 11.76-17.58c.21-.31.44-.64.63-.95a.3.3 0 0 1 .3-.15h1.17c.2 0 .18 0 .22.17l.28 1.16 1.29 5.43 1.35 5.64 1.31 5.44.91 3.78.04.17c0 .03 0 .04-.02.04h-4.54c-.13 0-.13 0-.16-.14l-.36-1.82c-.14-.74-.3-1.47-.43-2.2-.03-.12-.03-.12-.14-.12h-8.75c-.3 0-.22-.04-.4.22l-2.52 3.86c-.17.26-.1.22-.4.22H114Zm11.8-7.5h3.08c.02 0 .05-.03.05-.06l-.03-.16-.68-2.88-.94-3.88c-.01-.03 0-.09-.05-.09-.02 0-.04.03-.06.06-.01.03-.04.05-.05.1l-4.35 6.71-.08.13c-.02.03 0 .04.01.06h.21l2.9.01ZM105.5 86.22c0-.2-.01-.2.21-.2h1.4c.38-.02.75.03 1.12.15.13.04.26.1.37.17.4.22.65.63.67 1.1.02.18.02.35-.02.54-.09.3-.27.59-.53.77l-.34.23a.2.2 0 0 0-.04.06c0 .03.02.04.05.05l.2.06c.57.2 1 .7 1.08 1.3.04.23.04.45-.02.67l-.06.28c-.04.22-.14.42-.3.6-.4.4-.91.67-1.47.77l-.2.01h-2.05c-.04 0-.07-.02-.07-.07v-6.49Zm.95 4.49v1.16c0 .08.02.1.1.1.33.04.68.04 1.02 0 .13-.02.25-.05.36-.1a1 1 0 0 0 .71-.85 1.7 1.7 0 0 0 0-.65.96.96 0 0 0-.7-.82 1.64 1.64 0 0 0-.51-.09H106.49c-.01 0-.04.02-.04.04l-.01.16.01 1.05Zm0-2.92v.84c0 .11.02.12.11.12l.69-.01c.15 0 .3-.04.46-.08a.83.83 0 0 0 .61-.74c.02-.11.02-.23 0-.34a.72.72 0 0 0-.53-.65 1.32 1.32 0 0 0-.32-.07l-.92-.01c-.07 0-.08 0-.08.1-.02.28-.02.56-.02.84ZM100.57 88.06v-2.12c0-.04.03-.07.05-.07h.73c.03 0 .06.03.06.06V92.59c0 .2.01.2-.21.2h-.56c-.06 0-.09-.03-.09-.1l-.01-.15c0-.02-.03-.04-.06-.04h-.01c-.03.02-.07.03-.1.06-.25.14-.53.24-.8.27-.29.03-.57.01-.85-.05-.49-.1-.9-.4-1.14-.84a3.14 3.14 0 0 1 .5-3.62 1.9 1.9 0 0 1 1.7-.5c.24.03.48.11.7.23l.09.01Zm-.04 2.32v-1.23a.39.39 0 0 0-.09-.24.96.96 0 0 0-.42-.28 1.33 1.33 0 0 0-1.28.27c-.2.16-.34.38-.42.62-.2.52-.21 1.11-.04 1.65.05.2.15.37.29.53.35.35.78.43 1.24.38.2-.03.4-.1.55-.23a.36.36 0 0 0 .17-.31v-1.16ZM147.04 92.78h-.94c-.05 0-.1-.02-.1-.08l-.12-.37-.3-.86a.13.13 0 0 0-.13-.1h-2.2c-.05 0-.1.03-.12.07l-.07.17a11.22 11.22 0 0 0-.38 1.08.13.13 0 0 1-.13.1h-.89a.25.25 0 0 1 .04-.2l.91-2.34 1.6-4.08.02-.05c.03-.1.13-.17.23-.15l.04.01c.01 0 .04.02.04.04l.06.15 2.44 6.61Zm-1.82-2.15h.02v-.04a.2.2 0 0 0-.03-.08l-.8-2.55-.01-.01h-.03l-.03.04-.9 2.53v.07c0 .02 0 .04.02.04H145.11c.04.02.08.02.11 0ZM121.42 90.03a.31.31 0 0 0 .13-.13l1.54-1.85.08-.1a.23.23 0 0 1 .1-.06c.07 0 .83 0 .94.02a.32.32 0 0 1-.1.14l-1.24 1.52c-.16.2-.14.15-.02.34l1.61 2.63.11.19c-.03.05-.07.04-.1.04h-.7a.2.2 0 0 1-.19-.1l-.55-.89-.76-1.24a1.19 1.19 0 0 0-.11-.17c-.06 0-.08.02-.1.05-.18.2-.37.4-.56.58-.07.06-.1.14-.1.24v1.33c0 .21 0 .2-.2.2h-.47c-.22 0-.21.01-.21-.23v-6.42c0-.3-.03-.27.25-.27h.53c.07 0 .1.02.1.1v.19l.02 3.89ZM116.32 92.78h-.74c-.05 0-.08-.02-.08-.05v-4.61c0-.23 0-.23.22-.23h.29c.05-.01.12.03.14.09l.15.36.06.09.07-.06c.35-.4.85-.6 1.37-.56.16 0 .32.02.49.04.13.01.27.08.37.17.4.3.65.76.67 1.26V92.7c0 .07-.01.1-.08.1h-.67c-.07 0-.1-.02-.1-.09v-3.04c0-.17-.01-.32-.06-.5a.85.85 0 0 0-.73-.61c-.26-.05-.52 0-.76.1-.14.08-.27.15-.38.24a.44.44 0 0 0-.2.4v3.23c0 .08 0 .17-.03.25ZM81.96 88.43l.07-.07c.43-.5.98-.62 1.6-.55l.09.01c.4.01.66.27.9.57.02.04.05.08.06.14l.1.25c.1.24.14.51.14.77V92.7c0 .1-.01.1-.11.1h-.64c-.07 0-.09-.02-.1-.1-.02-.09 0-.11 0-.18v-2.76c0-.24-.04-.48-.14-.7a.7.7 0 0 0-.67-.49c-.55-.06-.95.17-1.27.58-.03.03-.05.08-.05.13v3.45c0 .04-.01.07-.07.07h-.7c-.05 0-.08-.03-.08-.07v-4.74c0-.06.03-.07.09-.07h.41c.06 0 .12.03.13.1.1.11.17.25.24.4ZM129.21 92.78h-.75c-.07 0-.09-.02-.09-.1V88.8c0-.22 0-.2-.2-.2h-.37c-.13 0-.13-.02-.13-.11v-.54c0-.04.03-.07.06-.07h.5c.14 0 .13-.03.14-.13.02-.18.03-.37.07-.55.07-.34.23-.65.46-.9.34-.35.8-.5 1.26-.43.18.01.38.06.56.1.07.01.09.04.07.11-.01.07-.04.13-.07.2-.03.11-.07.23-.13.34a.74.74 0 0 1-.34-.04c-.4-.07-.86.25-1 .56a.58.58 0 0 0-.05.27c-.02.14-.02.3.03.44.12.01.26.03.39.01h.5c.04 0 .07.03.08.07V88l-.01.57c-.18.05-.36.01-.54.02h-.35c-.09 0-.1.02-.1.12v.18l.01 3.9ZM150.5 86.02l-.23.57c-.02.06-.07.08-.13.07l-.24-.04a.79.79 0 0 0-.83.34 1 1 0 0 0-.17.9c.05.03.11.05.18.03h.71c.04 0 .09.03.09.07V88c-.02.2.02.4-.03.6-.18 0-.36.02-.55 0h-.3c-.06 0-.09.02-.09.08V92.69c0 .05-.03.07-.08.07h-.7c-.03 0-.07-.02-.07-.06v-3.86c0-.28.03-.26-.25-.26h-.38c-.03 0-.07-.01-.07-.05V87.95a.1.1 0 0 1 .06-.09h.39c.28 0 .24.02.25-.22.01-.29.07-.55.17-.8a1.5 1.5 0 0 1 1.74-.94c.17.04.35.07.52.12ZM152.06 88.47c.04 0 .05-.04.07-.07a1.4 1.4 0 0 1 1.09-.6c.25 0 .51 0 .76.06.05.05.02.07 0 .12l-.23.65c-.03.08-.06.1-.13.07l-.32-.1a.73.73 0 0 0-.55.04 1.4 1.4 0 0 0-.7.76 1.2 1.2 0 0 0-.06.39v2.87c0 .14 0 .14-.16.15h-.64c-.07 0-.08-.03-.1-.1v-4.69c0-.09.02-.1.11-.1h.67c.1 0 .12.01.12.13l.01.34c.01 0 .01.05.06.08ZM137.27 87.92c.03.18.02.37.06.6l.14-.18.14-.15.15-.13.17-.1a.96.96 0 0 1 .18-.07l.21-.06.2-.02h.2l.19.02.2.05c.06.01.12.03.17.07.03.04 0 .08-.02.13-.07.2-.16.38-.24.58-.01.04-.06.07-.1.05h-.01l-.37-.11a.62.62 0 0 0-.39 0c-.56.15-.92.68-.9 1.26v2.87c0 .07 0 .07-.06.07h-.74c-.04 0-.07-.03-.07-.06v-4.61c0-.24-.01-.22.2-.22h.53c.08-.03.12-.02.16.01ZM87.46 90.35v2.34c0 .07-.03.08-.1.08h-.68c-.08 0-.1-.01-.1-.08v-3.85c0-.28.03-.26-.25-.26H86c-.05 0-.07-.02-.09-.05v-.6c0-.02.03-.07.06-.07h1.42c.03 0 .06.03.06.06v.18l.01 2.25ZM155.91 92.53v.18c0 .07-.01.07-.07.07h-.71c-.04 0-.07-.02-.07-.07v-3.93c0-.18 0-.17-.17-.17h-.38c-.1 0-.1-.01-.1-.1v-.5c0-.09.02-.1.1-.1h1.32c.04 0 .07.02.08.05v4.57ZM87.6 86.55a.59.59 0 0 1-.57.56.53.53 0 0 1-.52-.55c0-.3.24-.52.53-.52.32.01.56.21.56.5ZM155.02 86.59a.9.9 0 0 1 .04-.27.38.38 0 0 1 .24-.22.69.69 0 0 1 .47 0c.16.05.25.18.28.33.02.12.02.23-.01.34-.1.27-.4.41-.66.33-.06-.01-.11-.06-.15-.09a.55.55 0 0 1-.21-.42Z"></path></svg> 