<?xml version="1.0" encoding="UTF-8"?> <svg xmlns="http://www.w3.org/2000/svg" fill="none" viewBox="0 0 246 139"><path fill="#12171D" d="M138.15 79.9c-7.31 5.25-17.91 8.05-27.04 8.05a49.7 49.7 0 0 1-33.03-12.26c-.69-.6-.07-1.43.75-.96a67.92 67.92 0 0 0 33.05 8.53 67.3 67.3 0 0 0 25.2-5.02c1.24-.5 2.28.8 1.07 1.67Z"></path><path fill="#12171D" d="M141.19 76.52c-.93-1.16-6.18-.55-8.53-.28-.72.09-.83-.52-.19-.95 4.18-2.87 11.04-2.04 11.84-1.08.8.96-.2 7.65-4.13 10.84-.6.5-1.18.23-.91-.42.88-2.14 2.86-6.94 1.92-8.1ZM132.82 55.08V52.3c0-.42.33-.7.72-.7h12.8c.42 0 .75.28.75.7v2.38c-.01.4-.36.92-.97 1.75l-6.63 9.21c2.46-.05 5.06.3 7.3 1.53.5.28.64.68.68 1.08v2.97c0 .4-.46.88-.94.63-3.94-2-9.18-2.22-13.53.02-.44.24-.9-.23-.9-.64v-2.81c0-.46 0-1.23.46-1.92l7.69-10.72h-6.7c-.4 0-.73-.28-.73-.7ZM86.12 72.44h-3.9c-.37-.03-.66-.3-.7-.65V52.35c0-.4.34-.7.76-.7h3.63c.38.01.68.3.7.65v2.54h.08c.95-2.46 2.73-3.6 5.13-3.6 2.43 0 3.96 1.14 5.05 3.6a5.52 5.52 0 0 1 5.38-3.6 5.6 5.6 0 0 1 4.51 2.12c1.23 1.64.98 4.02.98 6.1v12.28c0 .38-.34.7-.75.7h-3.9c-.38-.03-.7-.33-.7-.7V61.43c0-.82.08-2.87-.1-3.65-.3-1.3-1.17-1.67-2.3-1.67-.94 0-1.92.61-2.32 1.6-.4.97-.37 2.61-.37 3.72v10.3c0 .4-.33.7-.75.7h-3.89c-.39-.02-.7-.32-.7-.7v-10.3c0-2.17.37-5.36-2.4-5.36-2.8 0-2.7 3.1-2.7 5.36v10.3c0 .4-.33.7-.74.7ZM158.1 51.24c5.79 0 8.91 4.83 8.91 10.97 0 5.93-3.45 10.63-8.9 10.63-5.68 0-8.77-4.82-8.77-10.84 0-6.06 3.13-10.76 8.77-10.76Zm.04 3.97c-2.87 0-3.05 3.8-3.05 6.17 0 2.38-.04 7.46 3.02 7.46 3.01 0 3.16-4.1 3.16-6.6 0-1.63-.07-3.6-.58-5.15-.44-1.35-1.31-1.88-2.55-1.88ZM174.5 72.44h-3.87c-.39-.03-.7-.33-.7-.7V52.28c.03-.36.35-.63.74-.63h3.61c.34.01.62.24.7.54v2.98h.07c1.1-2.66 2.62-3.93 5.3-3.93 1.76 0 3.46.61 4.56 2.29 1.02 1.56 1.02 4.17 1.02 6.05v12.25c-.05.34-.37.6-.76.6h-3.9c-.36-.02-.65-.27-.7-.6V61.26c0-2.12.26-5.24-2.43-5.24-.95 0-1.82.62-2.25 1.56a8.4 8.4 0 0 0-.62 3.68v10.48c0 .38-.34.7-.76.7ZM122.61 63.15v-.82c-2.81 0-5.79.58-5.79 3.81 0 1.64.87 2.75 2.37 2.75 1.1 0 2.08-.66 2.7-1.72.76-1.31.72-2.54.72-4.02Zm3.93 9.24a.83.83 0 0 1-.92.09c-1.3-1.05-1.52-1.53-2.23-2.53-2.14 2.12-3.65 2.76-6.42 2.76-3.28 0-5.83-1.97-5.83-5.91a6.44 6.44 0 0 1 4.15-6.2c2.11-.9 5.07-1.06 7.32-1.3v-.5c0-.9.08-1.97-.47-2.74-.47-.7-1.38-1-2.18-1-1.49 0-2.81.75-3.14 2.29-.06.34-.32.67-.67.69l-3.78-.4c-.32-.07-.67-.32-.58-.79.87-4.46 5-5.8 8.7-5.8 1.9 0 4.38.5 5.88 1.89 1.9 1.72 1.71 4.02 1.71 6.52v5.9c0 1.78.76 2.55 1.47 3.51.25.34.3.76-.01 1.01-.8.65-2.21 1.85-2.99 2.52v-.01ZM71.55 63.15v-.82c-2.81 0-5.79.58-5.79 3.81 0 1.64.87 2.75 2.37 2.75 1.1 0 2.07-.66 2.7-1.72.76-1.31.72-2.54.72-4.02Zm3.93 9.24a.83.83 0 0 1-.92.09c-1.3-1.05-1.52-1.53-2.24-2.53-2.13 2.12-3.64 2.76-6.42 2.76-3.27 0-5.82-1.97-5.82-5.91a6.44 6.44 0 0 1 4.15-6.2c2.11-.9 5.06-1.06 7.32-1.3v-.5c0-.9.07-1.97-.47-2.74-.48-.7-1.39-1-2.19-1-1.48 0-2.8.75-3.13 2.29-.06.34-.32.67-.67.69l-3.78-.4c-.32-.07-.67-.32-.58-.79.87-4.46 5-5.8 8.7-5.8 1.9 0 4.38.5 5.87 1.89 1.9 1.72 1.72 4.02 1.72 6.52v5.9c0 1.78.76 2.55 1.47 3.51.25.34.3.76-.01 1.01-.8.65-2.21 1.85-2.99 2.52l-.01-.01Z"></path></svg> 