<?xml version="1.0" encoding="UTF-8"?> <svg xmlns="http://www.w3.org/2000/svg" fill="none" viewBox="0 0 246 139"><path fill="#12171D" fill-rule="evenodd" d="M213.72 69.5c0 6.7-9.55 13.11-26.57 17.85-17.01 4.73-40.09 7.39-64.15 7.39-24.06 0-47.14-2.66-64.15-7.4C41.83 82.62 32.28 76.2 32.28 69.5c0-6.7 9.55-13.11 26.57-17.85 17.01-4.73 40.09-7.39 64.15-7.39 24.06 0 47.14 2.66 64.15 7.4 17.02 4.73 26.57 11.15 26.57 17.84Z" clip-rule="evenodd"></path><path fill="#fff" d="M149.63 59.93c-1.61-.24-3.29-.12-4.7.29-2.2.27-1.73 2.94-2.46 4.5l.11.34c.47.21.84-.05 1.21-.18.23-.2.44.12.4.3-.81 3.28-2 6.43-2.46 9.86.15 1.4 1.47 2.22 2.29 3.2 3.07.98 5.98-.69 8.42-2.67 2.56-2.73 4.5-7.14 3.17-11-.81-2.84-3.3-4.25-5.99-4.64Zm-1.08 4.23c.77.16 1.48.54 1.98 1.12 1.07 1.28.9 3.01.47 4.49-.66 1.6-1.94 3.41-3.8 3.6.41-2.58 1.28-5.05 1.77-7.64-.07-1.01-1.05-1.32-1.8-1.61.45-.07.92-.06 1.38.04ZM200.57 61.37c-.9 5.27-2.35 10.19-3.77 15.1-.03.5.24.99-.05 1.46-1.36.62-3.2.16-4.43-.6-.93-2.82-1.03-5.9-1.84-8.7l-2.12 8.76c-.2.53-.59.97-1.18.94-1.1-.15-2.94-.07-3.27-1.4 1.38-5.55 2.5-11.3 4.44-16.51.34-1.02 1.36-.47 2.07-.54 1.3.44 2.87.95 3.14 2.59.51 1.54.8 3.16 1.15 4.74l.22-.22c.52-2.39.95-4.83 1.8-6.97 1.17-.58 2.56.17 3.6.64l.24.71ZM182.1 60.03c-1.09-.25-1.92 1.18-2.82 1.74-.29-.55.13-1.26-.18-1.77a2.94 2.94 0 0 0-1.83-.12c-3.46 1.05-5.7 4.21-6.68 7.5-1.13 3.64-1.36 7.85 1.63 10.46a5.15 5.15 0 0 0 4.9.68c5.53-2.51 7-9.13 6.67-14.92-.31-1.12-.4-2.37-1.22-3.36a1.44 1.44 0 0 0-.48-.21Zm-3.46 4c.73 2.98-.12 6.94-2.03 9.23-.36.33-.82.65-1.27.33-1.46-1.54-.36-4.08.21-5.83.5-1.6 1.96-2.63 3.09-3.74ZM170.41 61.03c-.22 1.42-.29 3.1-1.56 3.76-1.94.06-4.03-.4-5.92-.12.3.46 1.18.6 1.07 1.3.12.52-.56 1.06.05 1.42 1.41.13 2.91-.15 4.28.37.35 1.33-.39 2.83-.97 4l-.63.28-4.12-.15-.28.23c-.2.63-.62 1.39-.32 2.07l4.48.21c.43.3.3.85.31 1.3-.15 1-.48 1.83-1 2.6l-.88.26-6.15-.22c-.98-.36-1.65-1.6-1.87-2.54l.7-3.6c-.4-.4-.89-.82-.72-1.51.48-1.24.27-3.37 2.03-3.38.5-.63.48-1.63.75-2.44-.27-.48-1.19-.14-1.22-.86.63-1.38.18-3.97 2.13-4.03 2.82-.14 5.73.01 8.63.2.53.05 1.33.13 1.21.85ZM138.73 59.71c-.96-.05-1.74 1.33-2.64 1.7-.13-.53.1-1.13-.14-1.64-.6-.43-1.34-.16-1.97-.1-4.67 1.62-6.5 6.19-7.2 10.9-.34 2.8.4 6 3 7.49 1.78 1.04 3.84.59 5.48-.33 4.52-3.08 5.63-9.1 5.37-14.4-.26-1.15-.41-2.36-1.2-3.31-.24-.2-.48-.3-.7-.3Zm-3.25 4.22c.75 2.9-.18 6.66-1.88 9-.4.34-.85.71-1.35.43-.58-.56-.26-4.6.02-5.47a8.19 8.19 0 0 1 3.2-3.96ZM122.87 61.2c-.98 4.15-2.42 8.01-3.23 12.29l.16.21c1.58.2 3.15-.04 4.67.2.42.8-.15 1.63-.26 2.46-.24.72-.4 1.46-1 1.96l-.95.23-5.27-.2c-1.2-.75-2.08-2.37-2.38-3.71.91-5.1 2.52-9.78 4.05-14.48 1.12-.47 2.44.04 3.62.35.22.18.6.32.6.68ZM115.59 60.94c.03 1.32-.51 2.5-1 3.6l-.78.26c-1.9-.15-3.84-.2-5.71-.14.25.43.88.53 1.13 1.04.03.59-.53 1.29-.02 1.66 1.43.12 2.82-.15 4.28.37.34.66-.04 1.56-.17 2.28-.22.7-.45 1.44-1.02 1.95-1.52.08-3.07-.11-4.6-.04-.5.5-.54 1.26-.73 1.94.09.52.74.26 1.1.38 1.23.06 2.47-.17 3.72.2.55 1.2-.18 2.62-.65 3.67l-.59.37-6.38-.06c-1.13-.27-1.89-1.53-2.17-2.62.15-1.18.47-2.42.7-3.63-.15-.52-.96-.49-.71-1.2.14-1.2.38-2.39.98-3.32.36-.39.96 0 1.26-.6.02-.85.72-1.54.37-2.4-.53-.02-1.21-.14-1.11-.82.51-1.4.36-3.56 2.05-3.84 2.76-.15 5.6-.01 8.45.15.58.16 1.55.02 1.6.8ZM68.17 55.65c-.87 3.72-2.18 7.17-3.07 10.89l-2.64 9.36c-.06.63.44 1.3-.17 1.82-1.4.46-3.34.2-4.57-.58l-.46-.94-2.09-11.83-.27.42-3.1 12.6c-.18.57-.77.7-1.28.78-1.36-.04-3.2-.09-3.84-1.32v-.93c1.62-7 3.48-13.85 5.64-20.51.15-.45.47-.9.96-.99 1.79-.02 3.51.67 4.8 1.67.98 2.67 1.6 5.39 2.04 8.14l.24-.23 2.73-8.64c.2-.52.63-.95 1.23-.99 1.3.14 3.27-.03 3.85 1.28ZM102.8 61.47c-1.08 3.9-3.24 7.48-7.05 9.27 1.15 2.43 2.72 4.75 3.65 7.22-.22 1.43-1.88 1.85-2.94 2.3-1.43.36-1.52-1.46-2.19-2.21l-2.24-4.56-.26.43a23 23 0 0 1-1.15 4.44c-.72.6-1.9.01-2.76-.12-.55-.3-1.39-.29-1.53-1.06l3.9-14.81c.32-.8.38-1.73.97-2.34 1.2-.3 2.95-.07 3.95.7.31 1.29-.54 2.39-.7 3.66-.23.68-.54 1.32-.66 2.07l.15.22c2.9-1.13 3.75-4.05 5.03-6.45.68-.36 1.58.05 2.3.19.6.2 1.2.48 1.52 1.05ZM87.2 61.93c.25 1.36.32 3.13-.67 4.24-1 .71-2.31.69-3.4.28-.73-.69.71-2.18-.68-2.22-1.73 1.56-2.18 3.9-2.8 6.15 0 .99-.45 2.15.26 2.9 1.48.09 1.1-1.75 2.17-2.28.96-.5 2.33-.63 3.27.08.44.78.02 1.92-.2 2.74-.8 1.9-2.24 3.87-4.4 4.42-1.1.33-2.4.38-3.53-.11-3.22-2.3-2.51-6.48-1.78-10.1 1.15-3.67 3.4-7.93 7.72-8.3 1.66-.24 3.49.45 4.04 2.2ZM75.15 61.26l-.45 1.96-4 14.68c-1.25.87-3.27.29-4.43-.53-.65-.85.16-1.83.12-2.82 1.28-4.7 2.44-9.56 4.2-14.18 1.05-.83 2.74-.43 3.98.08.24.2.64.43.58.81ZM202.72 62c.01-.83.63-1.44 1.4-1.43.77 0 1.38.64 1.37 1.47-.02.83-.64 1.43-1.4 1.42a1.4 1.4 0 0 1-1.37-1.46Zm1.37 1.76c.92.01 1.72-.71 1.75-1.72a1.72 1.72 0 1 0-3.45-.04c-.02 1 .77 1.73 1.7 1.76Zm-.33-1.6.34-.01.49.89h.33l-.52-.9c.27-.03.5-.19.5-.55 0-.38-.22-.57-.68-.59h-.75l-.02 2.01h.3l.01-.86Zm0-.28.02-.61h.39c.2 0 .43.06.42.31 0 .3-.23.32-.48.32l-.35-.02Z"></path></svg> 