<?xml version="1.0" encoding="UTF-8"?> <svg xmlns="http://www.w3.org/2000/svg" fill="none" viewBox="0 0 246 139"><path fill="#12171D" d="M110.54 70.63h12.63v-2.87h-12.63v-4.99h13.9V60h-17.12v18.97h17.6v-2.93h-14.38v-5.41ZM82.81 67.76H79.8v2.87h3.02v8.34h3.23v-8.34h12.62v-2.87H86.04v-4.99h13.9V60H82.8v7.76ZM158.39 62.77h7.6v16.2h3.22v-16.2h7.6V60h-18.42v2.77ZM198.99 60l-6.67 8.25-6.58-8.25h-4l8.97 10.98v7.99h3.22v-7.99L202.9 60H199ZM148.53 60l-7.62 8.38a160.4 160.4 0 0 0-5.52 6.43h-.19c.1-.63.22-2.44.22-6.44V60h-3.22v18.95h3.51l7.61-8.34c1.9-2.1 3.75-4.26 5.54-6.43h.19c-.1.64-.22 2.46-.22 6.53v8.24h3.22V60h-3.52ZM43.1 60v19h1.33v-8.87h1.78V79h10.61v-1.27h-9.28v-7.6h1.76v5.92h1.33V67.2h1.75v8.86h1.33V65.92H49.3v2.94h-1.76v-4.64h7.95v11.83h1.33V64.22h1.76v5.91h3.08v7.6h-1.75V71.8h-1.33V79h4.41V62.95h-1.33v5.91h-1.75v-5.91H46.2v5.91h-1.78v-7.6h18.56V60H43.1Z"></path></svg> 