<?xml version="1.0" encoding="UTF-8"?> <svg xmlns="http://www.w3.org/2000/svg" fill="none" viewBox="0 0 245 139"><path fill="#12171D" d="M107.3 85.51c-4.87-3.15-11.48-3.7-22.15-.73-11.38 2.68-15.17 4.4-20.15.95-1.91-1.7-2.6-4.42-2.09-8.35 1.2-6.4 4.4-12.57 10.1-19.4 3.19-3.56 6.14-6.61 10.04-7.84 2.99-.77 2.7 1.59 2.35 1.92-.38 0-1.03.07-1.52.39-.4.31-1.5 1.32-1.57 2.68-.08 2.08 2.06 1.64 2.99.5 1-1.28 2.47-3.74 1.31-6.04a3.4 3.4 0 0 0-2.37-1.57c-3.57-.2-6.9 1.5-9.96 3.38a43.62 43.62 0 0 0-15.12 18.24c-1.75 4.28-3.33 10.4-.96 15.39 1.84 3.46 5.65 5.3 10.2 4.91 3.19-.33 7.05-1.37 9.64-2 2.6-.62 15.88-5.2 20.24 2.77 0 0 1.45-2.82 5.08-2.88 2.98-.28 7.28.86 10.42 3.17-1.05-1.57-4-3.9-6.47-5.49Z"></path><path fill="#12171D" d="M86.5 58.78c-2.48-1.63-7.48 1.49-11.47 6.85-3.66 4.8-5.24 10.39-3.52 12.97 2.55 3.04 7.3-1.38 9.32-3.75l.26-.27c1.37-1.48 2.43-3.26 3.46-4.96l.98-1.64c.59-.1 1.29-.27 2.08-.5-.01.03-3.03 5.12-2.72 7.64.1.77.02 3.58 2.76 4.43 3.65.61 6.56-2.22 9.14-4.74l.68-.66-.14.58c-1.07 3.73.37 4.5 1.27 4.8 2.72.8 5.97-3.17 5.98-3.17-.08 1.25-.33 2.28.99 3.1 1.24.45 2.5-.23 3.44-.86 3.44-2.43 6.2-6.23 8.44-9.51h-1.42c-.02 0-3.52 5.09-5.8 6.2 0 0-.41.2-.65.04-.3-.26-.18-.78 0-1.15l8.78-15.27h-4.14s-.45.74-.49.78c-.03-.02-.1-.15-.14-.2-2.56-3.56-8.37 1.9-12.74 8.25a41.62 41.62 0 0 1-6.05 7.17s-3.3 3.02-4.7.85c-.51-.91-.35-2.25-.06-3.13 1.63-4.67 4.45-8.91 7.67-11.47.9-.7 1.89-.91 2.38-.61.46.27.54.96.24 1.43a2.3 2.3 0 0 0-1.83.7c-.96 1.01-1.3 1.99-.99 2.9 1.48 2.12 4.44-2.07 4.3-4.61a2.74 2.74 0 0 0-1.27-2.2c-1.08-.65-2.73-.48-3.8.04-1.42.54-3.68 2.42-5 3.89-1.66 1.84-4.51 3.88-5.4 3.65.29-.78 2.7-5.72.16-7.57Zm19.95 7.3a58.9 58.9 0 0 1 3.72-4.6c1.93-1.7 2.7-.96 2.76-.43-1.8 3.22-3.9 6.9-5.9 10.22l-.62.95c-.88 1.35-1.77 2.5-3.2 3.3-.21.07-.55.1-.78-.08a.82.82 0 0 1-.35-.79c.09-1.03 1.14-4.2 4.38-8.57Zm-22.51 1.94-.05.14-1.8 2.95c-1.1 1.45-2.45 3.28-4.15 4.15-.5.17-1.2.28-1.55-.16-.75-.9-.36-2.16-.05-3.16l.11-.36c.9-2.46 2.33-4.62 3.72-6.62a.18.18 0 0 1 .08-.03v.04A5.97 5.97 0 0 0 84 67.79s.02.01.02.04a.6.6 0 0 1-.07.19Zm1.7-3.47-.8 1.85c-.11.1-.3.05-.5 0l-.36-.06c-1.12-.35-1.96-1.1-2.22-1.99-.36-1.73 1.11-3.08 1.76-3.57.63-.44 1.6-.67 2.16-.22.35.4.48.94.48 1.51a8.1 8.1 0 0 1-.52 2.48ZM137.97 70.12a2.43 2.43 0 0 0-2.36-1.36c-3.28.3-6.48 3-8.17 6.89-.88 2-1.36 3.64-1.68 6.26a17.27 17.27 0 0 1 5.46-4.17s.32-2.51 1.96-4.75c.62-.92 1.86-2.41 3.25-2.02 1.22.41.79 3.79-.83 7.06-1.2 2.4-3.02 4.8-4.88 6.46-1.63 1.4-4.06 3.07-6.18 1.78-1.33-.8-2.01-2.45-1.87-4.6.64-6.06 3.4-11.22 7.34-17.11 4.06-5.47 8.54-11.08 14.58-14.07 1.23-.62 2.37-.77 3.35-.38 0 0-5.66 3.12-8.36 8.9-.69 1.46-1.65 3.45-.68 5.2.5.91 1.4.99 2.11.94 3.31-.77 5.45-3.87 7.2-6.7 1.01-2.16 1.91-4.3 1.91-6.67a10 10 0 0 0-.04-.96c1.59-.85 4.83.64 4.83.64 2.53.85 7.93 4.99 9.75 5.78a57.4 57.4 0 0 1 3.17-3.37l-1.19-.74c-1.9-1.16-3.92-2.27-5.9-3.36a11.77 11.77 0 0 0-10.02-.92l-1.4.49c-1.39-1.52-3.66-1.37-5.33-.96-6.01 1.73-11.6 5.94-17.58 13.26-4.4 5.73-7.13 10.68-8.58 15.57-1.12 3.3-1.46 8.13 1.27 11 2.33 2.44 5.42 1.91 7.6 1.04 4.71-2.33 8.96-7.36 11.07-13.13.51-1.72 1.08-4.15.2-6Zm10.85-18.1c-.62 7.18-6.2 11.4-7.57 11.73-.84.17-2.26-.2-.99-3.22 1.88-4.06 5.08-7.5 8.5-9.27.09.3.09.5.06.76ZM181.87 52.93c-3 1.7-6.1 2.81-9.86 2.43a57.44 57.44 0 0 0-3 3.64c5.28 1.34 10.88-1.65 14-4.5 3.3-2.87 4.99-6.48 4.99-6.48s-2.47 2.83-6.13 4.91ZM123.02 62.52l2.22-3.6h-3.93l-2.22 3.6h3.93Z"></path><path fill="#12171D" d="M171.99 85.84c-.42.3-1.02.07-.8-.59.56-1.68 2.76-5.1 2.76-5.1l6.12-10.9h-4.2c-.2.33-.62 1.09-.62 1.09a5.76 5.76 0 0 0-1.01-1.2c-1.03-.65-2.53-.35-3.57.24-4.5 2.65-7.8 7.87-10.4 11.94 0 0-2.73 4.53-4.24 4.86-1.19.1-1.06-1.5-1.01-1.87a30.6 30.6 0 0 1 2.59-7.57 58.04 58.04 0 0 0 6.92-5.67c4.9-4.7 9.04-10.02 9.64-11.2 0 0-.65.12-1.42.15-3.78 5.27-11.5 12.94-13.83 14.08 1.03-2.5 7.73-14.43 13.43-20.14l.9-.86c1.38-1.36 2.82-2.75 3.94-2.98.12-.01.27 0 .4.28a5.2 5.2 0 0 1-.8 2.72l-.62 1.3s.9-.17 1.48-.36c.68-1.29 1.43-2.73 1.16-4.45-.1-.55-.5-.97-1.02-1.06-1.7-.33-3.55.93-5.04 1.95l-.06.04c-7.66 6.02-14.14 14.7-19.8 26.54-.4.3-1.99.68-2.26.5.56-1.15 1.27-2.7 1.62-4.38.06-.48.11-.98.11-1.46 0-1.03-.24-2-1.17-2.68-1.08-.54-2.42-.28-3.32.12-4.05 1.69-7.07 5.84-9.25 9.27-1.17 2.17-2.34 4.5-2.67 7.17-.22 2.09.24 3.43 1.42 4.1 1.22.63 2.76-.02 3.36-.33 4.1-2.16 6.96-6.5 9.22-10.46.09-.02 1.32-.05 2.25-.3l.04.02-.54 1.62c-1.43 4.2-2.09 7.07-.74 8.76 1.93 2.39 5.13-.08 7.73-3.35-.56 3.91 1.47 4.53 3.01 4.23 1.77-.48 3.75-2.38 4.67-3.35-.3 1.14-.22 3.18 1.4 3.38 1.1.2 1.93-.4 2.88-.91 3.44-1.88 7.55-8.12 8.61-9.93h-1.4c-1.51 2.3-3.44 5.31-5.87 6.74Zm-30.82-.41a1.9 1.9 0 0 1-.3-1.07c-.04-2.35 2.49-6.57 4.27-8.87.75 1.64 2.45 2.7 3.47 3.14-1.27 2.84-5.62 8.91-7.44 6.8Zm8.16-8.06c-.12.08-2.26-.64-2.67-2.62-.35-1.71.82-3.04 1.95-3.72a1.96 1.96 0 0 1 1.76-.32c.5.34.64.94.64 1.59 0 .4-.06.8-.1 1.17l-.01.09a16.1 16.1 0 0 1-1.57 3.8Zm17.12 7.3-.4.36c-.58.52-1.17 1.07-1.89.8-.2-.08-.33-.34-.37-.55-.03-1.48.64-2.85 1.28-4.18l.17-.35c1.85-3.1 4-6.75 7.16-9.28.53-.39 1.11-.71 1.72-.46.14.13.3.36.3.59 0 .07-.06.26-.1.32-.88 1.43-1.72 2.93-2.54 4.38-1.6 2.84-3.25 5.79-5.33 8.37Z"></path></svg> 