<?xml version="1.0" encoding="UTF-8"?> <svg xmlns="http://www.w3.org/2000/svg" fill="none" viewBox="0 0 245 155"><path fill="#12171D" fill-rule="evenodd" d="M73.73 61.67c-1.63-.88-3.12-2.03-5.45-2.1a7.87 7.87 0 0 0-5.13 2.35c-1.82 2.22-2.34 3.57-2.28 6.98 0 2.5 1.31 5.22 1.88 11.77.25 3.03-.7 6.64-4.23 6.66-2.3.14-3.81-2.75-3.4-5.5l-3.28 5.39c1.85 1.1 4.67 2.42 6.5 2.44 4.12 0 7.03-3.43 7.7-4.47.96-1.52 1.66-4.2 1.36-7.75-.13-2.49-1.71-8.2-1.71-10.7-.41-2.47 1.6-5.23 2.84-4.86 1.85-.03 2.78 1.6 3.07 4.45l2.13-4.66Zm116.03 9.35a12.18 12.18 0 0 0-4.55-1.26c-1.2.01-2.44.68-3.24 1.49-1.16 1.4-2.08 2.18-2.03 4.34.11 1.59.63 3.16 2.06 7.12.55 1.99-.03 4.1-2.26 4.1-1.46.09-2.43-1.2-3.16-3.01l-1.92 3.34c1.17.7 3.1 1.65 4.26 1.66 2.33.47 5.55-1.36 6.56-3.41.66-2.32.1-2.82-.08-5.07-.2-1.61-1.26-3.63-1.55-5.33-.3-1.73 1.1-3.34 1.88-3.12 1.17-.01 2.21 1.18 2.4 2.98l1.63-3.83ZM89.64 63.48c-.13-.8-.45-.93-.95-1.13l.05-.25h5.64l-3.68 9.01a8.09 8.09 0 0 1 4.02-.92c1.79-.12 3.23 2.14 2.62 4.27l-4.7 12.8c-.29.9.16 1 .8 1.22l-.1.27h-6.57l.14-.38c.56-.07 1.06-.38 1.49-1.1L93 75.37c.46-1.33.6-2.44-.85-2.37-1.65.2-2.76 1.7-3.68 3.86l-4.14 10.4c-.13.56.05.94.72 1.19l-.13.3h-6.26l.05-.3a2.61 2.61 0 0 0 1.38-1.2l9.55-23.78Zm-5.9 7.4a7.78 7.78 0 0 0-3.73-.93 9.16 9.16 0 0 0-6.62 2.99c-1.58 1.64-4.57 6.39-4.5 10.27.14 2.06.61 5.85 4.61 5.92a8.25 8.25 0 0 0 6.05-3.48l-1.96-2.28c-1.15 2.21-2.08 3.98-3.89 3.34-2.23-1.01-.38-5.67.59-8.04 1.06-2.44 3.07-6.66 5.49-6.57 1.13.02 1.47 1.06 2.35 3.16l1.6-4.38Zm37.68 6.3c1.04-2.74 2.5-5.25 4.54-5.18 1.44.25.38 3.07-.3 5.17h-4.24Zm8.87-4.55a3.96 3.96 0 0 0-3.61-2.87 7.84 7.84 0 0 0-6.26 2.99c-1.58 1.65-4.92 6.39-4.85 10.27.13 2.06.6 5.85 4.6 5.92 2.08-.04 5.11-1.67 6.26-3.57l-2.17-2.19c-1.15 2.21-2.08 3.98-3.88 3.34-1.95-.88-.93-4.4.11-6.93l8.7-.02c.16-.36 1.72-4.52 1.1-6.94Zm38.09 4.54c1.04-2.73 2.5-5.24 4.54-5.17 1.44.25.38 3.07-.3 5.17h-4.24Zm8.87-4.54a3.96 3.96 0 0 0-3.61-2.87 7.83 7.83 0 0 0-6.25 2.99c-1.59 1.65-4.93 6.39-4.86 10.27.13 2.06.6 5.85 4.6 5.92 2.08-.04 5.11-1.67 6.26-3.57l-2.17-2.19c-1.15 2.21-2.07 3.98-3.88 3.34-1.94-.88-.93-4.4.11-6.93l8.7-.02c.16-.36 1.72-4.52 1.1-6.94Zm-77.9-2.42h5.97l-.14.43a.94.94 0 0 0-.86.7l-1.76 9.53 6.35-10.62h2.5l-1.44 10.62 5.64-9.62c.2-.25-.2-.7-.76-.86l.04-.18h4.77l-.11.33c-.61.12-1.11.43-1.3.75l-10.07 17.46h-2.84l1.22-9.8-5.92 9.85-3.12-.03 2.76-17.48c.04-.34-.32-.63-1-.7l.07-.38Zm34.6 3c.19-.44-.1-1.3-1.1-1.12l.02-.38 4.93-1.45.4 1.56c1.11-1.2 2.98-2.19 4.4-2.07 3.17.24 3.49 3.34 3.37 5.66a17.2 17.2 0 0 1-1.58 6.15c-1.67 3.25-3.97 7.4-8.36 7.47-1.1-.02-2.68-1.17-3.45-2.25l-2.91 7.4c-.12.46.42.86.83.86l-.11.39h-6.4l.12-.32c.63-.11 1.22-.45 1.33-.77l8.52-21.14Zm6.87-.32c2 .83.88 4.51-.34 7.72-1.22 3.2-3.36 6.62-5.28 5.56-1.92-1.07-.59-4.93.43-7.37 1.02-2.44 3.2-6.75 5.2-5.91Zm9.19.31c.18-.43-.11-1.29-1.1-1.1l.02-.39 4.92-1.45.4 1.56c1.11-1.2 2.99-2.19 4.41-2.07 3.16.24 3.48 3.34 3.37 5.66-.16 1.7-.48 3.89-1.58 6.15-1.68 3.25-3.98 7.4-8.36 7.47-1.1-.02-2.69-1.17-3.46-2.25l-2.91 7.4c-.12.46.43.86.83.86l-.11.39h-6.4l.12-.32c.63-.11 1.22-.45 1.33-.77l8.52-21.14Zm6.87-.31c1.98.83.88 4.51-.34 7.72-1.22 3.2-3.37 6.62-5.29 5.56-1.92-1.07-.59-4.93.43-7.37 1.02-2.44 3.2-6.75 5.2-5.91Zm33.37 17a2.96 2.96 0 0 0 2.91-2.94 2.91 2.91 0 0 0-2.91-2.87 2.93 2.93 0 0 0-2.98 2.87 2.97 2.97 0 0 0 2.98 2.94Zm-2.4-2.94a2.39 2.39 0 0 1 2.4-2.42 2.37 2.37 0 0 1 2.32 2.42 2.38 2.38 0 0 1-2.32 2.44 2.4 2.4 0 0 1-2.4-2.44Zm2.33.25.88 1.4h.59l-.95-1.45c.5-.04.86-.34.86-.92 0-.64-.41-.9-1.18-.9h-1.29v3.27h.5v-1.4h.59Zm-.59-.43v-1.04h.7c.36 0 .73.09.73.5 0 .5-.37.54-.77.54h-.66Z" clip-rule="evenodd"></path></svg> 