<?xml version="1.0" encoding="UTF-8"?> <svg xmlns="http://www.w3.org/2000/svg" fill="none" viewBox="0 0 245 139"><path fill="#12171D" d="M79.26 58.8v18.46c0 1.44.84 2.49 2.7 2.49h2.92V58.79h-5.62Zm97.06 15.02s-3.54-10.2-4.22-12.12c-.42-1.3-1.03-2.9-3.93-2.9h-6.6v20.95h2.22c1.71 0 2.78-.77 2.78-2.55V62.58h.09l6.43 17.17h6l6.44-17.17h.08v14.65c0 1.47.79 2.52 2.78 2.52h2.78V58.79h-6.2c-2.2 0-3.54.63-4.22 2.57-.44 1.3-4.32 12.46-4.32 12.46h-.11Zm-111.33.2-5.11-13.45c-.36-.99-.87-1.78-2.72-1.78H53l8.57 20.96h6.23l8.87-20.96H73c-1.58 0-2.2.68-2.59 1.7L65.08 74h-.09Zm61.45-10.82h2.86c2.05 0 3.26-.76 3.26-2.63V58.8h-8.14c-6.8 0-10.06 4.04-10.06 10.48 0 8.02 4.97 10.48 10.06 10.48h8.14v-1.81c0-1.84-1.26-2.6-3.12-2.6h-3c-3.23 0-6.23-1.16-6.23-6.07 0-4.26 2.27-6.07 6.23-6.07Zm-21.82 8.7c0 2.09-.96 3.72-3.77 3.72h-2.92c-2.05 0-3.25-.56-3.25-2.23 0-1.6 1.12-2.26 3.25-2.26h6.69v.77Zm-2.73-13.1H90.41v1.6c0 1.42.73 2.8 2.72 2.8h7.33c3.09 0 4.16 1.02 4.16 3.47v.37h-7.75c-5.79 0-7.9 2.68-7.9 6.32 0 4.44 2.96 6.39 7.9 6.39h5.16c6.77 0 8.23-3.42 8.23-7.91v-5.2c0-4.85-1.8-7.85-8.37-7.85Zm43.82 16.77c3.65 0 5.78-2.54 5.78-6.3 0-3.98-2.28-6.3-5.78-6.3-3.74 0-5.85 2.52-5.85 6.3 0 3.61 2.05 6.3 5.85 6.3Zm0-17c6.82 0 11.68 3.73 11.68 10.7 0 6.66-4.5 10.73-11.68 10.73-7.03 0-11.72-3.9-11.72-10.73 0-6.75 4.64-10.7 11.72-10.7Z"></path></svg> 