<?xml version="1.0" encoding="UTF-8"?> <svg xmlns="http://www.w3.org/2000/svg" fill="none" viewBox="0 0 246 139"><path fill="#12171D" d="M109.12 59v21h-3.67V63.52h-.05L98.86 80H96.4l-6.7-16.48h-.04V80h-3.38V59h5.28l6.06 15.56h.1l6.4-15.56h4.99Zm3.03 1.6c0-.58.2-1.07.63-1.45a2.2 2.2 0 0 1 1.52-.59c.64 0 1.17.2 1.56.59.4.38.64.87.64 1.45 0 .59-.2 1.07-.64 1.46-.44.4-.92.59-1.56.59-.63 0-1.12-.2-1.52-.59a2.2 2.2 0 0 1-.63-1.46Zm3.96 4.33V80h-3.57V64.93h3.57Zm10.8 12.5c.54 0 1.12-.1 1.76-.4a7.75 7.75 0 0 0 1.76-.97v3.3c-.59.35-1.22.6-1.96.74-.73.14-1.51.24-2.4.24-2.24 0-4.05-.68-5.42-2.09a7.23 7.23 0 0 1-2.1-5.35c0-2.43.73-4.42 2.15-5.98 1.42-1.55 3.42-2.33 6.06-2.33.69 0 1.37.1 2 .24.7.15 1.23.4 1.62.59v3.4a5.65 5.65 0 0 0-3.42-1.26c-1.42 0-2.54.43-3.42 1.36a5.08 5.08 0 0 0-1.27 3.7c0 1.5.44 2.71 1.27 3.54a4.59 4.59 0 0 0 3.37 1.26Zm13.64-12.74a3.98 3.98 0 0 1 1.36.2v3.59a2.2 2.2 0 0 0-.83-.39c-.39-.1-.78-.2-1.32-.2-.88 0-1.6.4-2.2 1.12-.58.73-.92 1.85-.92 3.4V80h-3.57V64.93h3.57v2.38h.04c.35-.82.83-1.46 1.47-1.94a4.32 4.32 0 0 1 2.4-.68Zm1.56 8.02c0-2.48.73-4.47 2.1-5.93 1.42-1.46 3.37-2.19 5.87-2.19 2.34 0 4.2.68 5.52 2.09 1.32 1.41 2 3.3 2 5.69a8.2 8.2 0 0 1-2.1 5.83c-1.42 1.46-3.32 2.19-5.77 2.19-2.34 0-4.2-.68-5.57-2.04-1.37-1.41-2.05-3.3-2.05-5.64Zm3.71-.15c0 1.56.35 2.77 1.08 3.6a3.92 3.92 0 0 0 3.08 1.26c1.27 0 2.3-.39 2.98-1.26.68-.83 1.03-2.04 1.03-3.7 0-1.6-.35-2.81-1.03-3.69a3.68 3.68 0 0 0-2.93-1.26 3.7 3.7 0 0 0-3.03 1.3c-.83.93-1.18 2.15-1.18 3.75Zm17.11-3.64c0 .48.15.92.49 1.21.34.3 1.03.63 2.15 1.07 1.42.58 2.44 1.22 2.98 1.9.59.73.88 1.55.88 2.57 0 1.41-.54 2.53-1.66 3.4-1.08.88-2.6 1.27-4.45 1.27a11.65 11.65 0 0 1-4.06-.83v-3.5c.64.44 1.37.83 2.1 1.07.74.25 1.42.4 2.06.4.78 0 1.42-.1 1.76-.35.39-.24.58-.58.58-1.12 0-.48-.2-.87-.58-1.26a9.04 9.04 0 0 0-2.25-1.17 6.72 6.72 0 0 1-2.79-1.84 4.12 4.12 0 0 1-.83-2.63c0-1.36.54-2.48 1.62-3.35a6.48 6.48 0 0 1 4.2-1.32c.54 0 1.12.05 1.76.2.63.14 1.22.29 1.66.44v3.45c-.49-.3-1.03-.59-1.66-.83a5.2 5.2 0 0 0-1.86-.34c-.68 0-1.22.15-1.56.39-.34.34-.54.68-.54 1.17Zm8.01 3.79c0-2.48.74-4.47 2.1-5.93 1.42-1.46 3.38-2.19 5.87-2.19 2.35 0 4.2.68 5.53 2.09 1.31 1.41 2 3.3 2 5.69a8.2 8.2 0 0 1-2.1 5.83c-1.42 1.46-3.33 2.19-5.77 2.19-2.35 0-4.2-.68-5.57-2.04a7.99 7.99 0 0 1-2.06-5.64Zm3.72-.15c0 1.56.34 2.77 1.08 3.6a3.92 3.92 0 0 0 3.07 1.26c1.28 0 2.3-.39 2.99-1.26.68-.83 1.02-2.04 1.02-3.7 0-1.6-.34-2.81-1.02-3.69a3.68 3.68 0 0 0-2.94-1.26 3.7 3.7 0 0 0-3.03 1.3 5.55 5.55 0 0 0-1.17 3.75Zm23.66-4.71h-5.33V80h-3.62V67.85h-2.54v-2.92h2.54v-2.09a5.3 5.3 0 0 1 1.56-3.89 5.36 5.36 0 0 1 3.96-1.5c.44 0 .84.04 1.18.04.34 0 .63.1.88.2v3.06a6.1 6.1 0 0 0-.64-.24c-.3-.1-.63-.15-1.03-.15-.73 0-1.31.24-1.7.68-.4.44-.6 1.17-.6 2.04v1.8h5.34v-3.4l3.56-1.07v4.47h3.62v2.92h-3.62v7.05c0 .92.2 1.55.5 1.94.33.39.87.58 1.6.58.2 0 .44-.04.74-.14s.53-.2.73-.34v2.92c-.24.14-.59.24-1.12.34-.54.1-1.03.14-1.57.14-1.51 0-2.64-.39-3.37-1.17-.73-.77-1.12-1.99-1.12-3.6l.04-7.67ZM57.22 52H40.5v16.63h16.72V52ZM75.69 52H58.97v16.63H75.7V52ZM57.22 70.38H40.5V87h16.72V70.37ZM75.69 70.38H58.97V87H75.7V70.37Z"></path></svg> 