<?xml version="1.0" encoding="UTF-8"?> <svg xmlns="http://www.w3.org/2000/svg" fill="none" viewBox="0 0 245 139"><path fill="#12171D" d="M126.44 53.15c.02-.03.04-.03.07 0l-.04.04-.03-.04Z"></path><path fill="#12171D" d="m92.4 64.58 1.23-3.74c.05-.15.15-.19.28-.21 2.15-.4 4.3-.75 6.49-.64 1.54.08 3.03.4 4.36 1.23a5.8 5.8 0 0 1 2.75 4.9c.06 1.2-.13 2.38-.3 3.56-.35 2.38-.72 4.77-1.06 7.16a.56.56 0 0 1-.34.46c-1.4.77-2.9 1.2-4.46 1.45a20.15 20.15 0 0 1-5.83.14 7 7 0 0 1-4.3-1.9 5.3 5.3 0 0 1 .43-7.76c1.2-1 2.62-1.5 4.12-1.81 2.27-.48 4.56-.42 6.85-.24.29.02.35-.07.36-.33.1-1.79-.97-3.08-2.85-3.42-1.3-.24-2.6-.04-3.87.18-1.31.2-2.6.54-3.86.97Zm8.02 5.41h-.1c-.79 0-1.57.06-2.34.18-.87.15-1.72.38-2.42.96-.8.66-1 1.54-.85 2.5.15.9.77 1.38 1.56 1.66.37.13.75.21 1.14.25 1.43.14 2.81-.11 4.2-.46.18-.02.33-.19.33-.38.18-1.41.37-2.82.58-4.22.03-.24-.05-.29-.25-.33-.61-.1-1.23-.15-1.85-.16Z"></path><path fill="#12171D" d="m158.55 74.38-.67 2.01c-.17.53-.36 1.06-.52 1.6a.42.42 0 0 1-.33.33c-2.27.6-4.57.93-6.9.64-2.67-.34-4.88-1.49-6.23-3.94a8.76 8.76 0 0 1-.98-4.89 10.98 10.98 0 0 1 4.06-8.01 9.44 9.44 0 0 1 5.25-2.12c1.35-.13 2.69-.1 4 .26a6.45 6.45 0 0 1 4.8 5.6c.2 1.6 0 3.16-.25 4.72-.03.2-.13.2-.28.2h-12.53c-.28 0-.36.07-.36.35-.04 2.34 1.25 3.89 3.54 4.28 1.69.3 3.33.04 4.98-.32.82-.18 1.63-.43 2.42-.71Zm-6.05-6.64h3.32c1.02 0 1.02 0 1.05-1.01.07-2.06-1.19-3.4-3.23-3.52a5.3 5.3 0 0 0-5.33 4.27c-.05.22 0 .27.22.27h3.97Z"></path><path fill="#12171D" d="M167.07 79.02a20.47 20.47 0 0 1-6.4-1.07c-.2-.08-.26-.13-.19-.36.34-1.03.67-2.06.98-3.1.07-.26.16-.24.37-.14a10.4 10.4 0 0 0 6.39.9c.5-.07 1-.27 1.4-.58a1.58 1.58 0 0 0 .18-2.45 5.6 5.6 0 0 0-1.25-.88c-1.14-.64-2.29-1.23-3.37-1.97-2.89-1.99-2.54-6.13.31-7.94a9.29 9.29 0 0 1 4.11-1.36c2.45-.26 4.82.16 7.15.87.21.06.27.12.19.35-.35.98-.7 1.96-1.01 2.95-.09.26-.19.24-.39.15a10.53 10.53 0 0 0-4.5-1.02h-.16c-.79.02-1.55.15-2.21.62a1.53 1.53 0 0 0-.64 1.74c.13.36.37.67.69.87.68.52 1.47.87 2.22 1.29.92.47 1.8 1.04 2.62 1.66 2.44 1.95 2.2 5.65-.15 7.54a9.32 9.32 0 0 1-5.16 1.87c-.47.04-.94.05-1.18.06Z"></path><path fill="#12171D" d="M183.05 79.02a20.48 20.48 0 0 1-6.32-1.06c-.23-.08-.3-.15-.2-.4.33-1.01.65-2.02.96-3.04.07-.25.14-.28.38-.17a10.45 10.45 0 0 0 6.36.91c.47-.07.91-.24 1.3-.49 1-.63 1.11-1.78.28-2.6a5.43 5.43 0 0 0-1.15-.79c-1.19-.67-2.42-1.28-3.53-2.08-2.58-1.87-2.26-5.24-.68-6.94a7.24 7.24 0 0 1 3.88-2.08 14.5 14.5 0 0 1 5.92.03c.83.14 1.64.37 2.45.6.27.07.37.15.25.46a66.6 66.6 0 0 0-.95 2.82c-.09.26-.17.3-.43.19a10.6 10.6 0 0 0-4.5-1.01h-.1a4.1 4.1 0 0 0-2.1.51c-.61.37-.92.9-.83 1.64.06.46.34.79.69 1.06.74.56 1.6.93 2.4 1.38.92.5 1.82 1.04 2.63 1.73 2.24 1.93 1.99 5.51-.27 7.36a8.7 8.7 0 0 1-4.13 1.77c-.76.12-1.54.2-2.31.2Z"></path><path fill="#12171D" d="M124.35 74.64c-.07.45-.26.85-.4 1.27-.27.8-.56 1.6-.82 2.4a.4.4 0 0 1-.35.3c-1.78.3-3.58.48-5.39.34-2.69-.2-5-1.19-6.59-3.5a8.51 8.51 0 0 1-1.42-5.4c.17-3.25 1.54-5.9 4.06-7.93a9.73 9.73 0 0 1 4.96-1.97 17.13 17.13 0 0 1 6.72.4c.42.11.82.27 1.23.4.15.06.19.12.13.28-.35 1.03-.7 2.06-1.02 3.1-.07.22-.18.17-.32.11-1.05-.43-2.16-.69-3.29-.77-2.44-.14-4.56.54-6.08 2.58-1.43 1.9-1.65 5.08-.12 7a5.32 5.32 0 0 0 3.69 2c1.6.18 3.16-.13 4.69-.57l.3-.07.02.03Z"></path><path fill="#12171D" d="M141.24 74.62c-.34.98-.73 1.96-1 2.96-.21.74-.56 1.08-1.35 1.16-2.22.23-4.45.48-6.67-.11a7.82 7.82 0 0 1-5.97-7.37c-.2-3.96 1.3-7.11 4.48-9.45a9.55 9.55 0 0 1 4.5-1.66 17.22 17.22 0 0 1 6.72.4c.41.12.8.28 1.2.4.22.06.22.16.15.34l-.99 3c-.07.24-.16.23-.36.15-1.55-.6-3.14-.91-4.81-.74a6.13 6.13 0 0 0-5.56 4.97c-.4 2.01-.04 3.85 1.56 5.27a5.88 5.88 0 0 0 4.46 1.35c1.16-.08 2.3-.3 3.41-.66.07-.01.13-.07.23-.01Z"></path><path fill="#12171D" d="M66.34 52v2.84l15.63 15.7-13.53 13.58-.02-.02L54.9 70.53l-.01-.02 6.64-6.66h-2.89L52 70.52 68.42 87l16.4-16.46L66.33 52Z"></path><path fill="#12171D" d="M66.34 56.8v2.84l10.84 10.9-8.73 8.76-8.75-8.77-.01-.02 6.64-6.66h-2.88l-6.65 6.67 11.62 11.67 11.6-11.65L66.35 56.8Z"></path><path fill="#12171D" d="m75.24 70.53-6.85-6.89-6.86 6.88 6.87 6.9 1.45-1.46 5.4-5.42v-.01Zm-6.81 4.01-4.02-4.03 4-4 4 4.01-3.98 4.02Z"></path></svg> 