<?xml version="1.0" encoding="UTF-8"?> <svg xmlns="http://www.w3.org/2000/svg" fill="none" viewBox="0 0 245 139"><path fill="#12171D" d="M140.67 52.3a1.3 1.3 0 0 0-1.24-.9h-12.45l-3.84-11.75a1.32 1.32 0 0 0-2.5 0l-3.85 11.74h-12.44a1.32 1.32 0 0 0-1.24 1.71c.08.27.25.5.47.66l10.06 7.26-3.84 11.74a1.31 1.31 0 0 0 .48 1.46c.47.34 1.1.32 1.54 0l10.07-7.25 10.06 7.26a1.33 1.33 0 0 0 2.02-.66 1.3 1.3 0 0 0 0-.8l-3.84-11.75 10.07-7.26a1.31 1.31 0 0 0 .47-1.46Z"></path><path fill="#fff" d="M140.67 51.55a1.31 1.31 0 0 0-1.24-.9h-12.45l-3.84-11.75a1.32 1.32 0 0 0-2.5 0l-3.85 11.74h-12.44a1.32 1.32 0 0 0-1.24 1.71c.08.26.25.5.47.66l10.06 7.26L109.8 72a1.31 1.31 0 0 0 .48 1.46c.47.34 1.1.32 1.54 0l10.07-7.26 10.06 7.26a1.33 1.33 0 0 0 2.02-.65 1.3 1.3 0 0 0 0-.8l-3.84-11.75L140.2 53a1.31 1.31 0 0 0 .47-1.46Z"></path><path fill="#12171D" d="M111.43 72.32a.25.25 0 0 1-.3 0c-.09-.07-.13-.17-.1-.27l4-12.22-10.46-7.55a.24.24 0 0 1-.09-.28c.02-.05.05-.1.09-.12.04-.04.1-.05.15-.05h12.93l4-12.21a.25.25 0 0 1 .24-.18c.11 0 .2.08.24.18l4 12.2h12.93a.25.25 0 0 1 .24.34.24.24 0 0 1-.1.12l-10.46 7.55 4 12.22c.03.1 0 .2-.1.27a.25.25 0 0 1-.3 0l-10.45-7.55-10.46 7.55Z"></path><path fill="#12171D" d="M92.11 71.02v-2.4h-.47v-.79h1.84v.78h-.5v2.4h-.87Zm3.28-1.71c.23 0 .35-.2.35-.4 0-.29-.17-.4-.4-.4v.8h.05Zm.42 1.71-.48-1.33v1.33h-.86v-3.19h.84c.75 0 1.3.22 1.3 1.06 0 .36-.16.67-.5.8l.64 1.33h-.94Zm2.96-1.09-.09-.74-.06-.6h-.01l-.08.6-.12.74h.36Zm.17 1.09-.06-.41h-.59l-.07.4h-.9l.78-3.18h1.06l.68 3.19h-.9Zm2.56-.77c.4 0 .47-.5.47-.8 0-.34-.07-.82-.47-.82v1.62Zm-.87-2.42h.7c.99 0 1.52.62 1.52 1.58 0 1.47-.93 1.6-1.46 1.6h-.76v-3.18Zm3.2 0h1.6v.76h-.74v.44h.67v.75h-.67v.49h.74v.75h-1.6v-3.19Zm36.52 3.19-.08-2-.12.7-.24 1.3h-.7l-.31-2h-.01l-.01.7-.07 1.3h-.94l.38-3.19h1.08l.25 1.7.09-.6.2-1.1h1.07l.32 3.19h-.9Zm2.92-1.09-.1-.74-.06-.6-.09.6-.12.74h.37Zm.16 1.09-.06-.41h-.58l-.07.4h-.9l.77-3.18h1.06l.68 3.19h-.9Zm2.58-1.71c.23 0 .35-.2.35-.4 0-.29-.17-.4-.4-.4v.8h.05Zm.42 1.71-.48-1.33v1.33h-.86v-3.19h.83c.76 0 1.3.22 1.3 1.06 0 .36-.15.67-.5.8l.65 1.33h-.94Zm4.08-3.19-.69 1.54.78 1.65h-.94l-.53-1.46h-.01v1.46h-.87v-3.19h.87v1.36l.48-1.36h.91ZM83.7 92.3c-.35-.96-.07-3.88 1.55-4.43 1.7-.59 2.76.29 3.27 2 .19.63.14 1.3-.06 1.55-.3.36-.85.58-1.33.75l-1.28.41c-1.26.43-1.86.51-2.15-.28Zm8.06 3.55a8 8 0 0 1-2.97 1.98c-1 .31-3.85.56-4.69-1.77-.18-.51-.03-.67.43-.8.69-.2 2.46-.72 4.33-1.42 1.7-.63 3.2-1.4 3.68-1.71.85-.56.98-1.34.6-2.17-1.18-2.66-3.88-5.44-8.36-4.6a7.6 7.6 0 0 0-6.1 7.5c0 4.5 2.73 7.14 6.2 7.96 3.23.76 7.01-.8 8.63-3.4.64-1-1.17-2.19-1.75-1.57Zm33.63-3.55a5 5 0 0 1 .2-2.9c.27-.7.66-1.26 1.35-1.53a2.2 2.2 0 0 1 1.97.07c.6.34 1.03 1.02 1.3 1.93.19.63.15 1.3-.06 1.55-.3.36-.78.55-1.33.75-.43.14-.85.29-1.28.42-1.26.4-1.86.5-2.15-.3Zm8.06 3.55a7.99 7.99 0 0 1-2.97 1.98c-1 .31-3.85.56-4.68-1.77-.19-.51-.04-.67.42-.8.7-.2 2.46-.72 4.33-1.42 1.7-.63 3.21-1.4 3.69-1.71.85-.56.97-1.34.6-2.17-1.2-2.66-3.89-5.44-8.37-4.6a7.6 7.6 0 0 0-6.1 7.5c0 4.5 2.73 7.14 6.21 7.96 3.22.76 7-.8 8.62-3.4.64-1-1.16-2.19-1.75-1.57Zm23.72-3.55c-.2-.57-.19-1.85.2-2.9.27-.7.66-1.26 1.36-1.53a2.2 2.2 0 0 1 1.97.07c.6.34 1.02 1.02 1.3 1.93.18.63.14 1.3-.07 1.55-.3.36-.77.55-1.33.75-.42.14-.85.29-1.28.42-1.26.4-1.85.5-2.15-.3Zm8.06 3.55a7.97 7.97 0 0 1-2.96 1.98c-1 .31-3.85.56-4.7-1.77-.17-.51-.02-.67.44-.8.68-.2 2.46-.72 4.32-1.42 1.7-.63 3.22-1.4 3.69-1.71.85-.56.97-1.34.6-2.17-1.19-2.66-3.88-5.44-8.36-4.6a7.6 7.6 0 0 0-6.11 7.5c0 4.5 2.73 7.14 6.22 7.96 3.21.76 7-.8 8.61-3.4.65-1-1.16-2.19-1.75-1.57ZM67.04 91.1a.46.46 0 0 0-.45.46v5.1c0 .8.24 1.32.68 1.51l1.04.47c.2.1.2.3.17.55l-.12 1.13c-.02.27-.23.38-.63.38h-7.44c-.38 0-.61-.07-.65-.38l-.12-1.17c-.03-.29.03-.44.21-.52l1.03-.47c.46-.21.66-.83.66-1.48V84.05c0-.7-.2-1.27-.72-1.5-.23-.12-.72-.34-.96-.45-.2-.1-.26-.27-.22-.53.04-.23.1-.63.12-.87.05-.3.27-.37.65-.37h7.1c.37 0 .59.06.63.37l.12.87c.04.26-.01.43-.2.54l-.84.45c-.3.17-.5.51-.51 1.33v3.67a.45.45 0 0 0 .28.42c.05.02.11.04.17.04h3.97a.45.45 0 0 0 .46-.46V83.9c0-.82-.2-1.16-.51-1.33l-.84-.45c-.2-.1-.24-.28-.2-.54l.11-.87c.05-.3.27-.37.64-.37h7.1c.38 0 .6.06.64.37l.12.87c.04.26-.01.44-.21.53l-.97.44c-.51.24-.71.8-.71 1.51v12.63c0 .65.2 1.27.65 1.48l1.03.47c.18.08.24.23.21.52l-.12 1.17c-.03.31-.27.38-.64.38h-7.44c-.4 0-.61-.11-.64-.38l-.12-1.13c-.03-.26-.02-.46.18-.55l1.04-.47c.43-.19.67-.72.68-1.51v-5.1a.45.45 0 0 0-.46-.46h-3.97Z"></path><path fill="#12171D" d="m146.8 90.7 3.44 6.17c.56 1 1.19 1.29 2.04 1.77.22.12.28.2.24.61l-.1 1.05c-.03.35-.28.4-.63.4h-3.98c-.5 0-.7-.1-.88-.43l-3.51-6.35-1.25 1.2v1.65c0 .76.36 1.25.7 1.44l.83.46c.2.11.22.26.2.58l-.11 1.07c-.03.27-.22.38-.64.38h-6.62c-.37 0-.6-.07-.64-.38l-.11-1.11c-.04-.3.01-.44.2-.55l.84-.46c.33-.18.6-.66.6-1.46V83.92c-.01-.88-.35-1.29-.61-1.43l-.84-.47c-.19-.1-.23-.3-.19-.55l.1-.77c.05-.32.27-.37.65-.37h4.78c.4 0 .86.3.86.86v9.8l3.07-2.76c.28-.25.2-.52.05-.59l-.76-.34c-.19-.08-.28-.19-.25-.5l.1-1c.03-.3.13-.41.62-.41h5.84c.37 0 .49.12.51.36l.12 1.1c.02.22-.13.35-.45.47-.85.3-1.22.52-2.36 1.62l-1.85 1.76Zm-46.19 6.1c0 .75.26 1.22.6 1.4l.84.47c.2.11.22.26.19.58l-.1 1.07c-.04.27-.22.38-.64.38h-6.62c-.38 0-.61-.07-.64-.38l-.12-1.11c-.03-.3.02-.44.21-.55l.84-.46c.32-.18.59-.66.59-1.46v-7.18c0-.97-.29-1.42-.6-1.6l-.58-.32c-.2-.1-.22-.3-.19-.54l.12-.85c.04-.31.27-.38.64-.38h5.02a.45.45 0 0 1 .4.27c.03.06.04.12.04.17V96.8ZM97.8 79.9a2.6 2.6 0 0 0-2.66 2.55A2.6 2.6 0 0 0 97.8 85a2.6 2.6 0 0 0 2.65-2.54 2.6 2.6 0 0 0-2.65-2.55Zm20.06 9.65c0-2.63-1.2-3.64-2.6-4.08-1.61-.51-3.55.33-4.55.78-.27.12-.53.25-.78.38-.26-.6-.4-.77-.78-.77h-4.72c-.37 0-.6.07-.64.38l-.12.85c-.03.25 0 .43.2.54l.57.33c.31.17.6.62.6 1.59v7.18c0 .8-.27 1.28-.6 1.46l-.83.46c-.19.11-.24.26-.2.55l.1 1.11c.04.31.27.38.65.38h6.62c.42 0 .6-.1.63-.38l.11-1.07c.03-.32.01-.47-.2-.58l-.82-.46c-.43-.24-.61-.87-.61-1.44v-5.7c0-1.5.73-2.34 1.74-2.46.67-.09 1.53.32 1.53 1.5v7.7c0 2.18 1.87 3.02 3.34 3.02 1.56 0 2.9-.7 3.49-1.94.19-.4-.04-.7-.23-.9-.23-.25-.43-.46-.79-.28-.35.18-.72.53-.94.41-.16-.08-.17-.22-.17-.57v-7.99Zm64.22 0c0-2.63-1.2-3.64-2.6-4.08-1.61-.51-3.55.33-4.55.78l-.78.38c-.26-.6-.4-.77-.78-.77h-4.72c-.37 0-.6.07-.64.38l-.12.85c-.03.25 0 .43.2.54l.57.33c.31.17.6.62.6 1.59v7.18c0 .8-.27 1.28-.6 1.46l-.83.46c-.19.11-.24.26-.2.55l.1 1.11c.04.31.27.38.65.38H175c.43 0 .61-.1.64-.38l.11-1.07c.03-.32.01-.47-.2-.58l-.82-.46c-.43-.24-.61-.87-.61-1.44v-5.7c0-1.5.73-2.34 1.74-2.46.67-.09 1.53.32 1.53 1.5v7.7c0 2.18 1.87 3.02 3.34 3.02 1.56 0 2.9-.7 3.49-1.94.19-.4-.04-.7-.24-.9-.22-.25-.42-.46-.78-.28-.35.18-.72.53-.94.41-.16-.08-.17-.22-.17-.57v-7.99Zm1-8.9c0-.25-.27-.34-.49-.34h-.5v.72h.57c.25 0 .42-.16.42-.38Zm.7 1.46c.05.34.2.58.29.76h-.78c-.16-.33-.19-.56-.26-.79-.1-.33-.32-.43-.68-.43h-.27v1.22h-.72v-3.13h1.5c.36 0 .96.2.96.87 0 .42-.23.71-.47.8.26.17.38.36.43.7Zm1.11-.7a2.32 2.32 0 0 0-2.32-2.31 2.33 2.33 0 0 0-2.35 2.32 2.33 2.33 0 0 0 4.67 0Zm.6 0c0 1.6-1.31 2.9-2.92 2.9a2.92 2.92 0 0 1-2.94-2.9c0-1.6 1.32-2.9 2.94-2.9 1.6 0 2.92 1.3 2.92 2.9Z"></path></svg> 